<svg width="12" height="7" viewBox="0 0 12 7" fill="none" xmlns="http://www.w3.org/2000/svg">
<path d="M11.7692 1.38108L6.55351 6.76258C6.48083 6.83783 6.39446 6.89754 6.29937 6.93828C6.20427 6.97903 6.10231 7 5.99935 7C5.89638 7 5.79442 6.97903 5.69933 6.93828C5.60423 6.89754 5.51787 6.83783 5.44519 6.76258L0.229542 1.38108C0.0825686 1.22943 -2.19007e-09 1.02376 0 0.809297C2.19007e-09 0.594837 0.0825686 0.38916 0.229542 0.237513C0.376515 0.0858668 0.575853 0.000672833 0.783704 0.000672831C0.991555 0.000672828 1.19089 0.0858668 1.33787 0.237513L6 5.0479L10.6621 0.236841C10.8091 0.0851945 11.0084 0 11.2163 0C11.4241 0 11.6235 0.0851945 11.7705 0.236841C11.9174 0.388488 12 0.594164 12 0.808625C12 1.02309 11.9174 1.22876 11.7705 1.38041L11.7692 1.38108Z" fill="currentColor"/>
</svg>
