<svg width="19" height="19" viewBox="0 0 19 19" fill="none" xmlns="http://www.w3.org/2000/svg">
<path d="M17.625 0H5.625C5.32663 0 5.04048 0.118526 4.8295 0.329505C4.61853 0.540483 4.5 0.826631 4.5 1.125V4.5H1.125C0.826631 4.5 0.540483 4.61853 0.329505 4.8295C0.118526 5.04048 0 5.32663 0 5.625V17.625C0 17.9234 0.118526 18.2095 0.329505 18.4205C0.540483 18.6315 0.826631 18.75 1.125 18.75H13.125C13.4234 18.75 13.7095 18.6315 13.9205 18.4205C14.1315 18.2095 14.25 17.9234 14.25 17.625V14.25H17.625C17.9234 14.25 18.2095 14.1315 18.4205 13.9205C18.6315 13.7095 18.75 13.4234 18.75 13.125V1.125C18.75 0.826631 18.6315 0.540483 18.4205 0.329505C18.2095 0.118526 17.9234 0 17.625 0ZM12 16.5H2.25V6.75H12V16.5ZM16.5 12H14.25V5.625C14.25 5.32663 14.1315 5.04048 13.9205 4.8295C13.7095 4.61853 13.4234 4.5 13.125 4.5H6.75V2.25H16.5V12Z" fill="currentColor"/>
</svg>
