<svg width="15" height="11" viewBox="0 0 15 11" fill="none" xmlns="http://www.w3.org/2000/svg">
<path d="M13.3571 0H0.785714C0.57733 0 0.37748 0.0827803 0.23013 0.23013C0.0827804 0.37748 0 0.57733 0 0.785714V9.69048C0 10.0378 0.137967 10.3709 0.383551 10.6165C0.629134 10.862 0.962216 11 1.30952 11H12.8333C13.1806 11 13.5137 10.862 13.7593 10.6165C14.0049 10.3709 14.1429 10.0378 14.1429 9.69048V0.785714C14.1429 0.57733 14.0601 0.37748 13.9127 0.23013C13.7654 0.0827803 13.5655 0 13.3571 0ZM11.3372 1.57143L7.07143 5.48167L2.80565 1.57143H11.3372ZM1.57143 9.42857V2.5719L6.54042 7.12708C6.68534 7.25997 6.87481 7.33368 7.07143 7.33368C7.26805 7.33368 7.45752 7.25997 7.60244 7.12708L12.5714 2.5719V9.42857H1.57143Z" fill="currentColor"/>
</svg>
