<svg width="14" height="14" viewBox="0 0 14 14" fill="none" xmlns="http://www.w3.org/2000/svg">
<path d="M13.2887 3.44814C13.4325 2.93587 13.4721 2.39999 13.4052 1.87215C13.3383 1.34432 13.1663 0.835248 12.8994 0.375015C12.8335 0.261022 12.7389 0.166357 12.6249 0.100533C12.5109 0.0347077 12.3816 4.10583e-05 12.25 1.57751e-05C11.6497 -0.00167375 11.0569 0.13237 10.5157 0.392122C9.97455 0.651875 9.49913 1.03061 9.12499 1.50001H7.87499C7.50085 1.03061 7.02543 0.651875 6.48428 0.392122C5.94313 0.13237 5.35026 -0.00167375 4.74999 1.57751e-05C4.61837 4.10583e-05 4.48906 0.0347077 4.37508 0.100533C4.26109 0.166357 4.16643 0.261022 4.10062 0.375015C3.83367 0.835248 3.66167 1.34432 3.59479 1.87215C3.52791 2.39999 3.56751 2.93587 3.71125 3.44814C3.4123 4.00194 3.25392 4.62068 3.25 5.25001V5.75001C3.25117 6.58942 3.53348 7.40424 4.05186 8.06445C4.57024 8.72467 5.29483 9.19222 6.10999 9.39251C5.87361 9.80585 5.7495 10.2738 5.74999 10.75V11H4.74999C4.41847 11 4.10053 10.8683 3.86611 10.6339C3.63169 10.3995 3.5 10.0815 3.5 9.75C3.49917 9.02091 3.20917 8.32192 2.69363 7.80638C2.17808 7.29083 1.47909 7.00083 0.749999 7.00001C0.551087 7.00001 0.360322 7.07903 0.21967 7.21968C0.0790175 7.36033 0 7.5511 0 7.75001C0 7.94892 0.0790175 8.13968 0.21967 8.28034C0.360322 8.42099 0.551087 8.50001 0.749999 8.50001C1.08152 8.50001 1.39946 8.6317 1.63388 8.86612C1.8683 9.10054 2 9.41848 2 9.75C2.00082 10.4791 2.29082 11.1781 2.80637 11.6936C3.32191 12.2092 4.0209 12.4992 4.74999 12.5H5.74999V13.25C5.74999 13.4489 5.82901 13.6397 5.96966 13.7803C6.11031 13.921 6.30108 14 6.49999 14C6.6989 14 6.88967 13.921 7.03032 13.7803C7.17097 13.6397 7.24999 13.4489 7.24999 13.25V10.75C7.24999 10.4185 7.38169 10.1005 7.61611 9.86612C7.85053 9.6317 8.16847 9.50001 8.49999 9.50001C8.83151 9.50001 9.14945 9.6317 9.38387 9.86612C9.61829 10.1005 9.74999 10.4185 9.74999 10.75V13.25C9.74999 13.4489 9.82901 13.6397 9.96966 13.7803C10.1103 13.921 10.3011 14 10.5 14C10.6989 14 10.8897 13.921 11.0303 13.7803C11.171 13.6397 11.25 13.4489 11.25 13.25V10.75C11.2505 10.2738 11.1264 9.80585 10.89 9.39251C11.7051 9.19222 12.4297 8.72467 12.9481 8.06445C13.4665 7.40424 13.7488 6.58942 13.75 5.75001V5.25001C13.7461 4.62068 13.5877 4.00194 13.2887 3.44814ZM12.25 5.75001C12.25 6.34675 12.0129 6.91904 11.591 7.341C11.169 7.76295 10.5967 8.00001 9.99999 8.00001H6.99999C6.40326 8.00001 5.83096 7.76295 5.409 7.341C4.98705 6.91904 4.74999 6.34675 4.74999 5.75001V5.25001C4.7564 4.80308 4.88923 4.36709 5.13312 3.99251C5.21086 3.89186 5.26088 3.7726 5.27821 3.64661C5.29554 3.52062 5.27956 3.39229 5.23187 3.27439C5.01673 2.71844 5.00786 2.10381 5.20687 1.54189C5.54368 1.60394 5.86409 1.73475 6.14809 1.92617C6.43209 2.11758 6.67358 2.36548 6.85749 2.65439C6.9253 2.7603 7.01865 2.84747 7.12895 2.90786C7.23926 2.96826 7.36298 2.99995 7.48874 3.00001H9.51061C9.63648 3.00005 9.76033 2.96841 9.87075 2.90801C9.98118 2.84761 10.0746 2.76039 10.1425 2.65439C10.3263 2.3654 10.5678 2.11745 10.8518 1.92602C11.1358 1.7346 11.4563 1.60383 11.7931 1.54189C11.9921 2.10381 11.9833 2.71844 11.7681 3.27439C11.7224 3.39317 11.7076 3.52165 11.7252 3.64772C11.7428 3.77379 11.7922 3.89331 11.8687 3.99501C12.1116 4.36905 12.2437 4.8041 12.25 5.25001V5.75001Z" fill="currentColor"/>
</svg>
