<svg width="23" height="17" viewBox="0 0 23 17" fill="none" xmlns="http://www.w3.org/2000/svg">
<path d="M23 8.5C23 8.85595 22.8546 9.19732 22.5958 9.44901C22.337 9.7007 21.986 9.8421 21.62 9.8421H1.38C1.014 9.8421 0.662993 9.7007 0.404193 9.44901C0.145392 9.19732 0 8.85595 0 8.5C0 8.14405 0.145392 7.80268 0.404193 7.55099C0.662993 7.29929 1.014 7.15789 1.38 7.15789H21.62C21.986 7.15789 22.337 7.29929 22.5958 7.55099C22.8546 7.80268 23 8.14405 23 8.5ZM1.38 2.68421H21.62C21.986 2.68421 22.337 2.54281 22.5958 2.29112C22.8546 2.03942 23 1.69805 23 1.34211C23 0.986157 22.8546 0.644787 22.5958 0.393093C22.337 0.1414 21.986 0 21.62 0H1.38C1.014 0 0.662993 0.1414 0.404193 0.393093C0.145392 0.644787 0 0.986157 0 1.34211C0 1.69805 0.145392 2.03942 0.404193 2.29112C0.662993 2.54281 1.014 2.68421 1.38 2.68421ZM21.62 14.3158H1.38C1.014 14.3158 0.662993 14.4572 0.404193 14.7089C0.145392 14.9606 0 15.3019 0 15.6579C0 16.0138 0.145392 16.3552 0.404193 16.6069C0.662993 16.8586 1.014 17 1.38 17H21.62C21.986 17 22.337 16.8586 22.5958 16.6069C22.8546 16.3552 23 16.0138 23 15.6579C23 15.3019 22.8546 14.9606 22.5958 14.7089C22.337 14.4572 21.986 14.3158 21.62 14.3158Z" fill="currentColor"/>
</svg>
