<svg width="16" height="15" viewBox="0 0 16 15" fill="none" xmlns="http://www.w3.org/2000/svg">
<path d="M16 4.84489C16 10.3149 8.58643 14.7425 8.27071 14.9254C8.1875 14.9744 8.09449 15 8 15C7.90551 15 7.8125 14.9744 7.72929 14.9254C7.41357 14.7425 0 10.3149 0 4.84489C0.00132338 3.56039 0.468329 2.32892 1.29856 1.42064C2.12879 0.512355 3.25445 0.00144779 4.42857 0C5.90357 0 7.195 0.693914 8 1.86685C8.805 0.693914 10.0964 0 11.5714 0C12.7456 0.00144779 13.8712 0.512355 14.7014 1.42064C15.5317 2.32892 15.9987 3.56039 16 4.84489Z" fill="currentColor"/>
</svg>
