<svg width="14" height="14" viewBox="0 0 14 14" fill="none" xmlns="http://www.w3.org/2000/svg">
<path d="M12.7037 0H1.2963C0.952497 0 0.622779 0.136574 0.379676 0.379676C0.136574 0.622779 0 0.952497 0 1.2963V12.7037C0 13.0475 0.136574 13.3772 0.379676 13.6203C0.622779 13.8634 0.952497 14 1.2963 14H12.7037C13.0475 14 13.3772 13.8634 13.6203 13.6203C13.8634 13.3772 14 13.0475 14 12.7037V1.2963C14 0.952497 13.8634 0.622779 13.6203 0.379676C13.3772 0.136574 13.0475 0 12.7037 0ZM12.4444 12.4444H1.55556V1.55556H12.4444V12.4444ZM5.96296 10.1111V6.48148C5.96311 6.31985 6.01362 6.16227 6.10746 6.03067C6.2013 5.89906 6.33381 5.79996 6.48657 5.74714C6.63933 5.69431 6.80475 5.6904 6.95984 5.73593C7.11493 5.78146 7.25198 5.87418 7.35194 6.0012C7.74699 5.79413 8.18878 5.69249 8.6346 5.70609C9.08042 5.71969 9.5152 5.84807 9.89689 6.07884C10.2786 6.3096 10.5943 6.63493 10.8135 7.02338C11.0327 7.41184 11.1479 7.85027 11.1481 8.2963V10.1111C11.1481 10.3174 11.0662 10.5152 10.9203 10.6611C10.7745 10.8069 10.5766 10.8889 10.3704 10.8889C10.1641 10.8889 9.96626 10.8069 9.8204 10.6611C9.67454 10.5152 9.59259 10.3174 9.59259 10.1111V8.2963C9.59259 8.02126 9.48333 7.75748 9.28885 7.563C9.09437 7.36852 8.8306 7.25926 8.55556 7.25926C8.28052 7.25926 8.01674 7.36852 7.82226 7.563C7.62778 7.75748 7.51852 8.02126 7.51852 8.2963V10.1111C7.51852 10.3174 7.43657 10.5152 7.29071 10.6611C7.14485 10.8069 6.94702 10.8889 6.74074 10.8889C6.53446 10.8889 6.33663 10.8069 6.19077 10.6611C6.04491 10.5152 5.96296 10.3174 5.96296 10.1111ZM4.92593 6.48148V10.1111C4.92593 10.3174 4.84398 10.5152 4.69812 10.6611C4.55226 10.8069 4.35443 10.8889 4.14815 10.8889C3.94187 10.8889 3.74404 10.8069 3.59818 10.6611C3.45231 10.5152 3.37037 10.3174 3.37037 10.1111V6.48148C3.37037 6.2752 3.45231 6.07737 3.59818 5.93151C3.74404 5.78565 3.94187 5.7037 4.14815 5.7037C4.35443 5.7037 4.55226 5.78565 4.69812 5.93151C4.84398 6.07737 4.92593 6.2752 4.92593 6.48148ZM3.11111 3.88889C3.11111 3.68378 3.17193 3.48328 3.28588 3.31274C3.39983 3.1422 3.5618 3.00928 3.75129 2.93079C3.94079 2.8523 4.1493 2.83176 4.35046 2.87178C4.55163 2.91179 4.73641 3.01056 4.88144 3.15559C5.02648 3.30063 5.12524 3.48541 5.16526 3.68657C5.20527 3.88774 5.18474 4.09625 5.10625 4.28575C5.02775 4.47524 4.89483 4.6372 4.72429 4.75115C4.55375 4.8651 4.35325 4.92593 4.14815 4.92593C3.87311 4.92593 3.60933 4.81667 3.41485 4.62218C3.22037 4.4277 3.11111 4.16393 3.11111 3.88889Z" fill="currentColor"/>
</svg>
