<svg width="14" height="14" viewBox="0 0 14 14" fill="none" xmlns="http://www.w3.org/2000/svg">
<path d="M14 5.32C14 5.54278 13.9115 5.75644 13.754 5.91397C13.5964 6.0715 13.3828 6.16 13.16 6.16C12.9372 6.16 12.7236 6.0715 12.566 5.91397C12.4085 5.75644 12.32 5.54278 12.32 5.32V2.87L8.1543 7.0357C7.9965 7.1935 7.78247 7.28216 7.5593 7.28216C7.33613 7.28216 7.1221 7.1935 6.9643 7.0357C6.8065 6.8779 6.71784 6.66387 6.71784 6.4407C6.71784 6.21753 6.8065 6.0035 6.9643 5.8457L11.13 1.68H8.68C8.45722 1.68 8.24356 1.5915 8.08603 1.43397C7.9285 1.27644 7.84 1.06278 7.84 0.84C7.84 0.617218 7.9285 0.403561 8.08603 0.24603C8.24356 0.0884998 8.45722 0 8.68 0H13.16C13.3828 0 13.5964 0.0884998 13.754 0.24603C13.9115 0.403561 14 0.617218 14 0.84V5.32ZM10.92 7C10.6972 7 10.4836 7.0885 10.326 7.24603C10.1685 7.40356 10.08 7.61722 10.08 7.84V12.32H1.68V3.92H6.16C6.38278 3.92 6.59644 3.8315 6.75397 3.67397C6.9115 3.51644 7 3.30278 7 3.08C7 2.85722 6.9115 2.64356 6.75397 2.48603C6.59644 2.3285 6.38278 2.24 6.16 2.24H1.4C1.0287 2.24 0.672601 2.3875 0.410051 2.65005C0.1475 2.9126 0 3.2687 0 3.64V12.6C0 12.9713 0.1475 13.3274 0.410051 13.5899C0.672601 13.8525 1.0287 14 1.4 14H10.36C10.7313 14 11.0874 13.8525 11.3499 13.5899C11.6125 13.3274 11.76 12.9713 11.76 12.6V7.84C11.76 7.61722 11.6715 7.40356 11.514 7.24603C11.3564 7.0885 11.1428 7 10.92 7Z" fill="#52CBFF"/>
</svg>
