<svg width="14" height="14" viewBox="0 0 14 14" fill="none" xmlns="http://www.w3.org/2000/svg">
<path d="M10.8504 9.00832C10.7436 9.53693 10.4574 10.0124 10.0403 10.3543C9.62329 10.6962 9.10093 10.8836 8.56164 10.8847C7.11764 10.8832 5.73324 10.3089 4.71218 9.28781C3.69113 8.26676 3.11682 6.88235 3.11528 5.43836C3.11639 4.89907 3.30376 4.37671 3.64567 3.95965C3.98759 3.54259 4.46307 3.25644 4.99168 3.1496C5.15878 3.11653 5.33213 3.13922 5.48509 3.21418C5.63806 3.28914 5.7622 3.41223 5.83846 3.56456L6.58279 5.05582C6.64384 5.17833 6.67149 5.31477 6.66295 5.45138C6.65441 5.58799 6.60999 5.71992 6.53416 5.83387L5.98175 6.6625C6.26617 7.25557 6.74443 7.73383 7.3375 8.01825L8.16613 7.46584C8.28008 7.39001 8.41201 7.34559 8.54862 7.33705C8.68523 7.32851 8.82167 7.35616 8.94418 7.41721L10.4354 8.16154C10.5878 8.2378 10.7109 8.36194 10.7858 8.51491C10.8608 8.66787 10.8835 8.84122 10.8504 9.00832ZM14.008 6.99447C14.0082 8.19394 13.7004 9.37337 13.1139 10.4197C12.5275 11.466 11.6821 12.3442 10.6588 12.9699C9.63546 13.5957 8.46858 13.9481 7.26996 13.9934C6.07134 14.0387 4.88119 13.7754 3.81358 13.2286L1.7109 13.9321C1.48199 14.0092 1.23609 14.0209 1.00091 13.9658C0.765729 13.9107 0.550613 13.791 0.37981 13.6202C0.209007 13.4494 0.0893054 13.2343 0.0341976 12.9991C-0.0209102 12.7639 -0.00923372 12.518 0.0679108 12.2891L0.768805 10.1864C0.287509 9.24366 0.026207 8.20405 0.00454441 7.14577C-0.0171181 6.08748 0.201423 5.03805 0.643736 4.07638C1.08605 3.11472 1.74062 2.26584 2.55825 1.59358C3.37587 0.921311 4.33526 0.443155 5.36428 0.195058C6.3933 -0.0530385 7.46518 -0.0646196 8.49933 0.161186C9.53347 0.386991 10.503 0.844307 11.3349 1.49875C12.1669 2.15319 12.8396 2.98773 13.3026 3.93961C13.7656 4.8915 14.0068 5.93596 14.008 6.99447ZM12.4519 6.99447C12.4516 6.15906 12.2591 5.33493 11.8893 4.58582C11.5195 3.83671 10.9824 3.1827 10.3194 2.67439C9.65645 2.16608 8.88544 1.8171 8.06602 1.65443C7.24661 1.49177 6.40075 1.51978 5.5939 1.73631C4.78704 1.95284 4.04081 2.35207 3.41293 2.90313C2.78505 3.4542 2.29236 4.14231 1.97296 4.91425C1.65356 5.68618 1.51602 6.52125 1.57097 7.35484C1.62593 8.18843 1.87192 8.99821 2.2899 9.72154C2.34514 9.81691 2.37949 9.92294 2.39067 10.0326C2.40184 10.1423 2.3896 10.253 2.35473 10.3576L1.7109 12.2891L3.64241 11.6453C3.72186 11.6188 3.80504 11.6052 3.88879 11.6051C4.02544 11.6053 4.15961 11.6415 4.27782 11.7101C5.10581 12.1892 6.04538 12.4418 7.002 12.4424C7.95861 12.443 8.89851 12.1917 9.72712 11.7136C10.5557 11.2356 11.2438 10.5478 11.7222 9.71933C12.2005 8.89089 12.4522 7.95108 12.4519 6.99447Z" fill="currentColor"/>
</svg>
