<svg width="23" height="23" viewBox="0 0 23 23" fill="none" xmlns="http://www.w3.org/2000/svg">
<path fill-rule="evenodd" clip-rule="evenodd" d="M21.8347 13.5847C22.4208 12.9987 22.75 12.2038 22.75 11.375C22.75 10.5462 22.4208 9.75134 21.8347 9.16529C21.2487 8.57924 20.4538 8.25 19.625 8.25H14.5V3.125C14.5 2.2962 14.1708 1.50134 13.5847 0.915291C12.9987 0.329241 12.2038 0 11.375 0C10.5462 0 9.75134 0.32924 9.16529 0.915291C8.57924 1.50134 8.25 2.2962 8.25 3.125V8.25H3.125C2.2962 8.25 1.50134 8.57924 0.915291 9.16529C0.32924 9.75134 0 10.5462 0 11.375C0 12.2038 0.329241 12.9987 0.915291 13.5847C1.50134 14.1708 2.2962 14.5 3.125 14.5H8.25V19.625C8.25 20.4538 8.57924 21.2487 9.16529 21.8347C9.75134 22.4208 10.5462 22.75 11.375 22.75C12.2038 22.75 12.9987 22.4208 13.5847 21.8347C14.1708 21.2487 14.5 20.4538 14.5 19.625V14.5H19.625C20.4538 14.5 21.2487 14.1708 21.8347 13.5847Z" fill="white"/>
</svg>
