<svg width="933" height="933" viewBox="0 0 933 933" fill="none" xmlns="http://www.w3.org/2000/svg">
<path d="M0 228.735C0 102.408 102.408 0 228.735 0H704.265C830.592 0 933 102.408 933 228.735V704.265C933 830.592 830.592 933 704.265 933H228.735C102.408 933 0 830.592 0 704.265V228.735Z" fill="#101010"/>
<path d="M126.406 264.659H277.505C308.486 264.659 335.107 269.283 357.368 278.531C379.815 287.779 397.067 301.466 409.126 319.593C421.184 337.719 427.213 360.007 427.213 386.457C427.213 408.098 423.503 426.687 416.082 442.224C408.847 457.576 398.552 470.43 385.195 480.788C372.023 490.961 356.533 499.1 338.724 505.204L312.289 519.076H180.947L180.39 454.154H278.062C292.717 454.154 304.868 451.564 314.515 446.385C324.162 441.206 331.396 433.993 336.22 424.744C341.229 415.496 343.733 404.768 343.733 392.561C343.733 379.613 341.321 368.423 336.498 358.99C331.675 349.557 324.347 342.343 314.515 337.349C304.683 332.355 292.346 329.858 277.505 329.858H209.887V668.619H126.406V264.659ZM352.916 668.619L260.531 488.557L348.742 488.002L442.24 664.735V668.619H352.916Z" fill="#52CBFF"/>
<path d="M812.613 457.483V617.569C806.306 625.152 796.566 633.383 783.395 642.262C770.224 650.955 753.249 658.446 732.472 664.735C711.695 671.023 686.558 674.168 657.062 674.168C630.905 674.168 607.066 669.914 585.547 661.405C564.028 652.712 545.477 640.042 529.894 623.395C514.496 606.749 502.623 586.403 494.275 562.357C485.927 538.127 481.753 510.475 481.753 479.401V454.154C481.753 423.08 485.742 395.428 493.719 371.198C501.881 346.967 513.476 326.529 528.502 309.882C543.529 293.235 561.431 280.565 582.208 271.872C602.985 263.179 626.081 258.832 651.496 258.832C686.743 258.832 715.683 264.566 738.316 276.034C760.948 287.317 778.201 303.039 790.073 323.2C802.132 343.176 809.552 366.111 812.335 392.006H731.359C729.318 378.319 725.423 366.389 719.672 356.216C713.921 346.043 705.666 338.089 694.906 332.355C684.332 326.621 670.604 323.754 653.722 323.754C639.809 323.754 627.38 326.621 616.435 332.355C605.675 337.904 596.585 346.135 589.165 357.048C581.744 367.961 576.086 381.463 572.19 397.555C568.294 413.647 566.347 432.328 566.347 453.599V479.401C566.347 500.487 568.387 519.168 572.468 535.445C576.55 551.537 582.579 565.132 590.556 576.23C598.718 587.142 608.736 595.373 620.609 600.922C632.481 606.471 646.302 609.246 662.07 609.246C675.242 609.246 686.187 608.136 694.906 605.916C703.811 603.697 710.953 601.015 716.333 597.87C721.898 594.541 726.165 591.397 729.133 588.437V516.856H652.888V457.483H812.613Z" fill="#52CBFF"/>
</svg>
