<svg width="336" height="336" viewBox="0 0 336 336" fill="none" xmlns="http://www.w3.org/2000/svg">
<path d="M336 168C336 183.95 333.777 199.381 329.625 214C328.665 217.378 327.602 220.712 326.44 224C320.537 240.704 312.066 256.195 301.503 270C288.274 287.288 271.763 301.932 252.9 313C227.987 327.619 198.973 336 168 336C137.027 336 108.013 327.619 83.0996 313C64.2372 301.932 47.7263 287.288 34.4975 270C23.9341 256.195 15.4634 240.704 9.55952 224C8.39753 220.712 7.33497 217.378 6.37544 214C2.22277 199.381 0 183.95 0 168C0 75.2162 75.2162 0 168 0C217.756 0 262.46 21.63 293.222 56C307.684 72.1587 319.065 91.1333 326.44 112C332.631 129.516 336 148.364 336 168Z" fill="#D9D9D9"/>
<path fill-rule="evenodd" clip-rule="evenodd" d="M0 168H168V0C75.2162 0 0 75.2162 0 168Z" fill="#0D00C5"/>
<path fill-rule="evenodd" clip-rule="evenodd" d="M168 56H293.222C262.46 21.63 217.756 0 168 0V56Z" fill="#FF0000"/>
<path fill-rule="evenodd" clip-rule="evenodd" d="M293.222 56H168V112H326.44C319.065 91.1333 307.684 72.1587 293.222 56Z" fill="white"/>
<path fill-rule="evenodd" clip-rule="evenodd" d="M326.44 112H168V168H336C336 148.364 332.631 129.516 326.44 112Z" fill="#FF0000"/>
<path fill-rule="evenodd" clip-rule="evenodd" d="M336 168H0C0 183.95 2.22277 199.381 6.37544 214C7.33497 217.378 8.39753 220.712 9.55952 224H326.44C327.602 220.712 328.665 217.378 329.625 214C333.777 199.381 336 183.95 336 168Z" fill="white"/>
<path fill-rule="evenodd" clip-rule="evenodd" d="M83.0996 313C108.013 327.619 137.027 336 168 336C198.973 336 227.987 327.619 252.9 313C271.763 301.932 288.274 287.288 301.503 270H34.4975C47.7263 287.288 64.2372 301.932 83.0996 313Z" fill="white"/>
<path fill-rule="evenodd" clip-rule="evenodd" d="M168 336C198.973 336 227.987 327.619 252.9 313H83.0996C108.013 327.619 137.027 336 168 336Z" fill="#FF0000"/>
<path fill-rule="evenodd" clip-rule="evenodd" d="M329.625 214C328.665 217.378 327.602 220.712 326.44 224C320.537 240.704 312.066 256.195 301.503 270H34.4975C23.9341 256.195 15.4634 240.704 9.55952 224C8.39753 220.712 7.33497 217.378 6.37544 214H329.625Z" fill="#FF0000"/>
</svg>
