<svg width="22" height="16" viewBox="0 0 22 16" fill="none" xmlns="http://www.w3.org/2000/svg">
<path d="M15.75 10.5029C15.75 10.7996 15.662 11.0896 15.4972 11.3362C15.3324 11.5829 15.0981 11.7752 14.824 11.8887C14.5499 12.0022 14.2483 12.0319 13.9574 11.9741C13.6664 11.9162 13.3991 11.7733 13.1893 11.5635C12.9796 11.3538 12.8367 11.0865 12.7788 10.7955C12.7209 10.5046 12.7507 10.203 12.8642 9.92886C12.9777 9.65477 13.17 9.42051 13.4166 9.25568C13.6633 9.09086 13.9533 9.00289 14.25 9.00289C14.6478 9.00289 15.0294 9.16092 15.3107 9.44223C15.592 9.72353 15.75 10.1051 15.75 10.5029ZM7.50001 9.00289C7.20333 9.00289 6.91332 9.09086 6.66665 9.25568C6.41998 9.42051 6.22772 9.65477 6.11419 9.92886C6.00065 10.203 5.97095 10.5046 6.02883 10.7955C6.08671 11.0865 6.22957 11.3538 6.43935 11.5635C6.64912 11.7733 6.9164 11.9162 7.20737 11.9741C7.49834 12.0319 7.79994 12.0022 8.07403 11.8887C8.34812 11.7752 8.58239 11.5829 8.74721 11.3362C8.91203 11.0896 9.00001 10.7996 9.00001 10.5029C9.00001 10.1051 8.84197 9.72353 8.56067 9.44223C8.27936 9.16092 7.89783 9.00289 7.50001 9.00289ZM21.75 11.6279V13.8779C21.75 14.3752 21.5525 14.8521 21.2008 15.2037C20.8492 15.5553 20.3723 15.7529 19.875 15.7529H1.87501C1.37772 15.7529 0.900811 15.5553 0.54918 15.2037C0.19755 14.8521 5.48754e-06 14.3752 5.48754e-06 13.8779V11.7338C-0.00288061 8.84224 1.13276 6.06578 3.16126 4.00508L1.07907 1.92383C0.867724 1.71248 0.748992 1.42584 0.748992 1.12695C0.748992 0.978958 0.778141 0.832414 0.834776 0.695686C0.89141 0.558958 0.974421 0.434724 1.07907 0.330077C1.18372 0.225429 1.30795 0.142419 1.44468 0.0857842C1.58141 0.0291496 1.72795 0 1.87594 0C2.17483 0 2.46147 0.118732 2.67282 0.330077L4.90313 2.56508C6.6591 1.38941 8.72337 0.758945 10.8366 0.752889H10.875C13.0049 0.747049 15.0889 1.37137 16.8647 2.54726L19.0791 0.331951C19.1837 0.227304 19.3079 0.144293 19.4447 0.0876589C19.5814 0.0310243 19.7279 0.00187504 19.8759 0.00187504C20.0239 0.00187504 20.1705 0.0310243 20.3072 0.0876589C20.4439 0.144293 20.5682 0.227304 20.6728 0.331951C20.7775 0.436598 20.8605 0.560833 20.9171 0.697561C20.9737 0.834289 21.0029 0.980833 21.0029 1.12883C21.0029 1.27682 20.9737 1.42336 20.9171 1.56009C20.8605 1.69682 20.7775 1.82105 20.6728 1.9257L18.6103 3.9882C20.628 6.01805 21.7572 8.76587 21.75 11.6279ZM19.5 11.6279C19.5 10.4926 19.2759 9.36854 18.8405 8.32008C18.4051 7.27163 17.7671 6.31944 16.9629 5.51813C16.1587 4.71682 15.2042 4.08215 14.1542 3.65053C13.1042 3.2189 11.9793 2.99882 10.8441 3.00289C6.10501 3.01976 2.25001 6.94039 2.25001 11.7338V13.5029H19.5V11.6279Z" fill="currentColor"/>
</svg>
