<svg width="21" height="21" viewBox="0 0 21 21" fill="none" xmlns="http://www.w3.org/2000/svg">
<path d="M19.5587 3.83672L10.5587 0.0867189C10.4215 0.0294743 10.2743 0 10.1256 0C9.97689 0 9.82968 0.0294743 9.69245 0.0867189L0.692451 3.83672C0.463795 3.93196 0.272961 4.09999 0.149557 4.31476C0.0261542 4.52953 -0.022919 4.77902 0.00995139 5.02453L1.50995 16.2745C1.53425 16.4564 1.60265 16.6295 1.70919 16.7789C1.81572 16.9282 1.95717 17.0492 2.1212 17.1314L9.6212 20.8814C9.7775 20.9596 9.94987 21.0003 10.1246 21.0003C10.2994 21.0003 10.4718 20.9596 10.6281 20.8814L18.1281 17.1314C18.2921 17.0492 18.4336 16.9282 18.5401 16.7789C18.6466 16.6295 18.715 16.4564 18.7393 16.2745L20.2393 5.02453C20.2723 4.77925 20.2235 4.52992 20.1005 4.31518C19.9774 4.10044 19.787 3.93227 19.5587 3.83672ZM16.5953 15.3858L10.1265 18.6173L3.66245 15.3858L2.35558 5.58234L10.1265 2.34422L17.8975 5.58234L16.5953 15.3858ZM9.14308 5.82891L5.39308 12.5789C5.3213 12.7082 5.27569 12.8503 5.25885 12.9972C5.242 13.1441 5.25426 13.2929 5.29491 13.435C5.33557 13.5772 5.40383 13.71 5.49579 13.8258C5.58775 13.9415 5.70162 14.0381 5.83089 14.1098C5.96016 14.1816 6.1023 14.2272 6.2492 14.2441C6.3961 14.2609 6.54487 14.2487 6.68703 14.208C6.82919 14.1674 6.96195 14.0991 7.07774 14.0071C7.19352 13.9152 7.29005 13.8013 7.36183 13.672L8.07995 12.3755H12.1731L12.8931 13.672C13.038 13.9331 13.2808 14.1259 13.5679 14.208C13.855 14.2901 14.1629 14.2548 14.424 14.1098C14.6851 13.9649 14.8779 13.7222 14.96 13.435C15.0421 13.1479 15.0068 12.84 14.8618 12.5789L11.1118 5.82891C11.0145 5.65307 10.8719 5.5065 10.6988 5.40444C10.5257 5.30237 10.3284 5.24854 10.1275 5.24854C9.92649 5.24854 9.7292 5.30237 9.55609 5.40444C9.38298 5.5065 9.24037 5.65307 9.14308 5.82891ZM9.33058 10.1255L10.1265 8.69203L10.9225 10.1255H9.33058Z" fill="currentColor"/>
</svg>
