<svg width="21" height="21" viewBox="0 0 21 21" fill="none" xmlns="http://www.w3.org/2000/svg">
<path d="M10.125 0C8.12247 0 6.1649 0.593821 4.49986 1.70637C2.83481 2.81892 1.53706 4.40023 0.770724 6.25033C0.00438702 8.10043 -0.196122 10.1362 0.194554 12.1003C0.585229 14.0643 1.54954 15.8685 2.96555 17.2845C4.38156 18.7005 6.18566 19.6648 8.14971 20.0555C10.1138 20.4461 12.1496 20.2456 13.9997 19.4793C15.8498 18.7129 17.4311 17.4152 18.5436 15.7501C19.6562 14.0851 20.25 12.1275 20.25 10.125C20.247 7.4406 19.1793 4.86699 17.2812 2.96883C15.383 1.07067 12.8094 0.00297771 10.125 0ZM10.125 2.25C11.582 2.24884 13.0105 2.65402 14.25 3.42V4.92L12.3553 7.125L9.68625 7.48594L7.93313 6.3375C7.72866 6.19479 7.49778 6.0943 7.254 6.0419C7.01022 5.98951 6.75844 5.98626 6.51339 6.03236C6.26835 6.07845 6.03495 6.17296 5.82687 6.31035C5.6188 6.44774 5.44021 6.62525 5.30157 6.8325L3.33844 9.76688C3.13351 10.0719 3.02327 10.4307 3.02157 10.7981L3.00657 13.4878C2.43983 12.2877 2.18559 10.9639 2.26746 9.63925C2.34932 8.31461 2.76463 7.03214 3.47482 5.91098C4.18501 4.78981 5.16703 3.86632 6.32966 3.22628C7.4923 2.58624 8.79784 2.25041 10.125 2.25ZM4.53844 15.6694C4.75912 15.4948 4.93767 15.2727 5.06085 15.0197C5.18403 14.7667 5.24868 14.4892 5.25 14.2078L5.26875 10.9266L6.96282 8.39531L8.52094 9.41531C8.90659 9.68549 9.38007 9.80001 9.84657 9.73594L12.7969 9.33656C13.2524 9.27491 13.6695 9.04804 13.9688 8.69906L16.0463 6.28125C16.2509 6.04178 16.3923 5.75496 16.4578 5.44687C17.1413 6.36981 17.614 7.43139 17.8427 8.55682C18.0714 9.68224 18.0505 10.8441 17.7816 11.9606L16.7184 10.9884C16.4546 10.7484 16.1279 10.5882 15.7766 10.5266C15.4252 10.4651 15.0635 10.5046 14.7338 10.6406L11.8791 11.8275C11.5806 11.9525 11.3193 12.1524 11.1205 12.4077C10.9216 12.663 10.7919 12.9653 10.7438 13.2853L10.5197 14.8041C10.4524 15.2607 10.5559 15.726 10.8104 16.1111C11.0648 16.4961 11.4523 16.7738 11.8988 16.8909L13.3988 17.2828C11.9349 17.9538 10.3001 18.1586 8.71593 17.8695C7.13174 17.5804 5.67471 16.8114 4.54219 15.6666L4.53844 15.6694ZM15.4856 15.8869L15.3328 15.7341C15.0974 15.4984 14.8037 15.3295 14.4816 15.2447L12.7941 14.8022L12.9375 13.8262L15.375 12.8128L16.875 14.1806C16.4932 14.811 16.0256 15.3852 15.4856 15.8869Z" fill="currentColor"/>
</svg>
