<svg width="15" height="14" viewBox="0 0 15 14" fill="none" xmlns="http://www.w3.org/2000/svg">
<path fill-rule="evenodd" clip-rule="evenodd" d="M14.7931 12.6814L10.7931 0.68136C10.7235 0.474379 10.5881 0.295862 10.4075 0.173074C10.2269 0.0502863 10.0111 -0.0100221 9.79306 0.00135996H5.05306C4.84342 0.000818796 4.6389 0.0661789 4.46843 0.188202C4.29796 0.310225 4.17014 0.482739 4.10306 0.68136L0.0530595 12.6814C0.000540663 12.8361 -0.013261 13.0013 0.0128619 13.1626C0.0389848 13.3239 0.104236 13.4764 0.202908 13.6066C0.30158 13.7369 0.430665 13.841 0.578871 13.9098C0.727077 13.9786 0.889888 14.01 1.05306 14.0014H3.98306C4.19099 13.9998 4.39327 13.9335 4.56175 13.8116C4.73023 13.6897 4.85652 13.5184 4.92306 13.3214L5.53306 11.5414L8.53306 13.8114C8.7074 13.9376 8.91782 14.0043 9.13306 14.0014H13.8131C13.9746 14.0067 14.135 13.9727 14.2805 13.9025C14.4261 13.8322 14.5524 13.7278 14.6487 13.598C14.7451 13.4682 14.8085 13.3171 14.8337 13.1574C14.8588 12.9978 14.8449 12.8344 14.7931 12.6814ZM9.17306 13.3414C9.10038 13.3414 9.02984 13.3167 8.97306 13.2714L3.32306 9.08136L3.23306 9.01136H6.23306L6.31306 8.80136L7.31306 6.27136L9.55306 12.9014C9.57106 12.9569 9.57443 13.0162 9.56284 13.0735C9.55126 13.1308 9.5251 13.1841 9.48691 13.2283C9.44872 13.2725 9.39978 13.3062 9.3448 13.326C9.28983 13.3458 9.23068 13.3511 9.17306 13.3414ZM13.8431 13.3414H10.1231C10.1978 13.1277 10.1978 12.895 10.1231 12.6814L6.07306 0.68136H9.79306C9.86368 0.681716 9.93244 0.704054 9.98978 0.74527C10.0471 0.786487 10.0902 0.844537 10.1131 0.91136L14.1631 12.9114C14.1768 12.9612 14.1789 13.0135 14.1694 13.0643C14.1598 13.115 14.1388 13.163 14.108 13.2044C14.0771 13.2459 14.0372 13.2798 13.9913 13.3035C13.9454 13.3272 13.8947 13.3402 13.8431 13.3414Z" fill="currentColor"/>
</svg>
