<svg width="22" height="18" viewBox="0 0 22 18" fill="none" xmlns="http://www.w3.org/2000/svg">
<path d="M0 8V10C0 10 2 10 2 14V15C2 15.7956 2.31607 16.5587 2.87868 17.1213C3.44129 17.6839 4.20435 18 5 18H17C17.7956 18 18.5587 17.6839 19.1213 17.1213C19.6839 16.5587 20 15.7956 20 15V14C20 10 22 10 22 10V8C22 8 20 8 20 4V3C20 2.20435 19.6839 1.44129 19.1213 0.87868C18.5587 0.316071 17.7956 0 17 0H5C4.20435 0 3.44129 0.316071 2.87868 0.87868C2.31607 1.44129 2 2.20435 2 3V4C2 8 0 8 0 8ZM19.674 9C19.644 9.028 19.6147 9.05667 19.586 9.086C18.578 10.093 18 11.692 18 14V15C18 15.2652 17.8946 15.5196 17.7071 15.7071C17.5196 15.8946 17.2652 16 17 16H5C4.73478 16 4.48043 15.8946 4.29289 15.7071C4.10536 15.5196 4 15.2652 4 15V14C4 11.692 3.422 10.093 2.414 9.086L2.326 9C2.356 8.972 2.38533 8.94333 2.414 8.914C3.422 7.907 4 6.308 4 4V3C4 2.73478 4.10536 2.48043 4.29289 2.29289C4.48043 2.10536 4.73478 2 5 2H17C17.2652 2 17.5196 2.10536 17.7071 2.29289C17.8946 2.48043 18 2.73478 18 3V4C18 6.308 18.578 7.907 19.586 8.914L19.674 9ZM7.5 4V14H12.5C13.1491 14.0003 13.7808 13.79 14.3003 13.4007C14.8197 13.0115 15.1989 12.4642 15.3809 11.8411C15.5629 11.2181 15.5379 10.5527 15.3097 9.94508C15.0814 9.33741 14.6622 8.82017 14.115 8.471C14.3718 8.01448 14.5047 7.49866 14.5003 6.97487C14.4959 6.45107 14.3544 5.93755 14.09 5.4854C13.8255 5.03324 13.4473 4.65821 12.9929 4.39761C12.5385 4.13701 12.0238 3.99993 11.5 4H7.5ZM9.5 8V6H11.5C11.7652 6 12.0196 6.10536 12.2071 6.29289C12.3946 6.48043 12.5 6.73478 12.5 7C12.5 7.26522 12.3946 7.51957 12.2071 7.70711C12.0196 7.89464 11.7652 8 11.5 8H9.5ZM9.5 10H12.5C12.7652 10 13.0196 10.1054 13.2071 10.2929C13.3946 10.4804 13.5 10.7348 13.5 11C13.5 11.2652 13.3946 11.5196 13.2071 11.7071C13.0196 11.8946 12.7652 12 12.5 12H9.5V10Z" fill="currentColor"/>
</svg>
