<svg width="16" height="15" viewBox="0 0 16 15" fill="none" xmlns="http://www.w3.org/2000/svg">
<path d="M5.46744 1.003C5.46744 0.45 5.91744 0 6.47144 0H9.48144C10.0354 0 10.4844 0.45 10.4844 1.003V4.013C10.4844 4.09967 10.4741 4.183 10.4534 4.263C10.4734 4.34367 10.4838 4.42733 10.4844 4.514V7.023H11.7384V5.016C11.7384 4.81642 11.8177 4.62502 11.9588 4.4839C12.1 4.34278 12.2914 4.2635 12.4909 4.2635C12.6905 4.2635 12.8819 4.34278 13.023 4.4839C13.1642 4.62502 13.2434 4.81642 13.2434 5.016V7.023H15.2504C15.4499 7.023 15.6412 7.10223 15.7822 7.24326C15.9232 7.38428 16.0024 7.57556 16.0024 7.775C16.0024 7.97444 15.9232 8.16572 15.7822 8.30674C15.6412 8.44777 15.4499 8.527 15.2504 8.527H13.2114C13.0634 10.352 12.3734 11.807 11.2784 12.837C10.0454 13.997 8.37444 14.547 6.59544 14.547C4.97144 14.547 3.43744 14.089 2.24244 13.126C1.03944 12.155 0.236445 10.716 0.0124447 8.867C-0.115555 7.807 0.764445 7.023 1.70444 7.023H1.95444V4.514C1.95444 3.96 2.40444 3.511 2.95844 3.511H5.46644L5.46744 1.003ZM5.46744 5.016H3.46144V7.023H5.46744V5.016ZM1.70544 8.527C1.63344 8.527 1.57544 8.557 1.54244 8.592C1.52958 8.60377 1.51969 8.61843 1.51361 8.63478C1.50752 8.65112 1.50541 8.66868 1.50744 8.686C1.68944 10.183 2.31844 11.252 3.18844 11.954C4.06744 12.664 5.24844 13.042 6.59644 13.042C8.07244 13.042 9.34844 12.588 10.2484 11.742C11.0134 11.022 11.5614 9.969 11.7024 8.527H1.70544ZM6.97245 7.023H8.97845V5.016H6.97245V7.023ZM6.97245 3.511H8.97845V1.505H6.97245V3.511Z" fill="currentColor"/>
</svg>
