<svg width="15" height="22" viewBox="0 0 15 22" fill="none" xmlns="http://www.w3.org/2000/svg">
<path d="M6.66602 14.833H4.08398C3.57315 14.833 3.07319 14.9848 2.64844 15.2686C2.22378 15.5523 1.89276 15.9559 1.69727 16.4277C1.50185 16.8996 1.45022 17.419 1.5498 17.9199C1.64944 18.4209 1.89573 18.881 2.25684 19.2422C2.61799 19.6034 3.07812 19.8495 3.5791 19.9492C4.08004 20.049 4.59934 19.9981 5.07129 19.8027C5.54324 19.6074 5.94656 19.2762 6.23047 18.8516C6.51435 18.427 6.66582 17.9278 6.66602 17.417V14.833ZM13.334 10.75C13.334 10.0648 13.0616 9.40735 12.5771 8.92285C12.0926 8.43835 11.4352 8.16602 10.75 8.16602C10.0648 8.16602 9.40735 8.43835 8.92285 8.92285C8.43835 9.40735 8.16602 10.0648 8.16602 10.75C8.16602 11.4352 8.43835 12.0926 8.92285 12.5771C9.40735 13.0616 10.0648 13.334 10.75 13.334C11.4352 13.334 12.0926 13.0616 12.5771 12.5771C13.0616 12.0926 13.334 11.4352 13.334 10.75ZM1.5127 11.0049C1.57131 11.5962 1.83302 12.1522 2.25684 12.5762C2.74124 13.0606 3.39893 13.333 4.08398 13.333H6.66602V8.16699H4.08398C3.39893 8.16699 2.74124 8.43942 2.25684 8.92383C1.77258 9.40821 1.50098 10.0651 1.50098 10.75L1.5127 11.0049ZM13.333 4.08398C13.333 3.3988 13.0607 2.74134 12.5762 2.25684C12.0917 1.77234 11.4342 1.5 10.749 1.5H8.16602V6.66602H10.75C11.4354 6.66602 12.0918 6.39454 12.5762 5.91016C13.0606 5.42577 13.3329 4.76899 13.333 4.08398ZM1.5 4.08398C1.50013 4.76899 1.77245 5.42577 2.25684 5.91016C2.74134 6.39466 3.3988 6.66699 4.08398 6.66699H6.66602V1.5H4.08398C3.3988 1.5 2.74134 1.77234 2.25684 2.25684C1.77234 2.74134 1.5 3.3988 1.5 4.08398ZM14.833 4.08398C14.8329 5.16682 14.4024 6.20501 13.6367 6.9707C13.4719 7.13557 13.2933 7.28325 13.1055 7.41602C13.2937 7.549 13.4726 7.69716 13.6377 7.8623C14.4035 8.62811 14.834 9.66699 14.834 10.75C14.834 11.833 14.4035 12.8719 13.6377 13.6377C12.8719 14.4035 11.833 14.834 10.75 14.834C9.80412 14.834 8.892 14.5054 8.16602 13.9121V17.417C8.16577 18.2245 7.92633 19.0143 7.47754 19.6855C7.02882 20.3566 6.39135 20.8797 5.64551 21.1885C4.89942 21.4973 4.07808 21.5776 3.28613 21.4199C2.49434 21.2622 1.76712 20.8737 1.19629 20.3027C0.625394 19.7317 0.236546 19.0039 0.0791016 18.2119C-0.0782911 17.42 0.0025458 16.5994 0.311523 15.8535C0.606804 15.1408 1.09882 14.5285 1.72754 14.084C1.53946 13.9511 1.36131 13.8017 1.19629 13.6367C0.478514 12.9188 0.0558493 11.9613 0.00585938 10.9521L0.000976562 10.75C0.000976563 9.66724 0.430732 8.62897 1.19629 7.86328C1.36112 7.69845 1.53872 7.54881 1.72656 7.41602C1.53896 7.28333 1.36094 7.13535 1.19629 6.9707C0.430601 6.20501 0.000128282 5.16682 0 4.08398C0 3.00097 0.430484 1.96209 1.19629 1.19629C1.96209 0.430484 3.00097 0 4.08398 0H10.749C11.832 0 12.8709 0.430484 13.6367 1.19629C14.4025 1.96209 14.833 3.00097 14.833 4.08398Z" fill="currentColor"/>
</svg>
