<svg width="16" height="20" viewBox="0 0 16 20" fill="none" xmlns="http://www.w3.org/2000/svg">
<path d="M14.2168 6.974C13.7668 6.351 12.7348 5.07 11.1468 3.166C10.4578 2.341 9.86678 1.64 9.57678 1.296L9.16878 0.816L8.99578 0.611L8.90178 0.501L8.88378 0.474L8.87578 0.47L8.47578 0L7.96678 0.407C6.66659 1.44899 5.61765 2.77032 4.89778 4.273C4.47926 5.10778 4.18611 5.9997 4.02778 6.92C3.98778 7.122 3.95445 7.327 3.92778 7.535C3.73582 7.51883 3.54338 7.50882 3.35078 7.505C2.70908 7.48244 2.06777 7.55969 1.44978 7.734L1.18478 7.808L1.04878 8.046C0.408318 9.1702 0.0500777 10.433 0.00477979 11.726C-0.0519856 13.3677 0.398009 14.9871 1.29363 16.3642C2.18925 17.7412 3.48707 18.8092 5.01078 19.423L5.20778 19.502L5.26778 19.522H5.26978C6.05731 19.807 6.88473 19.9667 7.72178 19.995C7.81711 19.9983 7.91245 20 8.00778 20C9.06412 20.0017 10.1101 19.7916 11.0838 19.382L11.0908 19.385L11.3518 19.265C12.6965 18.6457 13.8426 17.6651 14.6625 16.4324C15.4823 15.1997 15.9436 13.7635 15.9948 12.284C16.0189 10.364 15.3922 8.49236 14.2168 6.974ZM5.83678 17.82L5.64478 17.746L5.59378 17.726C4.40536 17.235 3.3953 16.3927 2.69884 15.3118C2.00237 14.2309 1.65275 12.9631 1.69678 11.678C1.72604 10.748 1.96426 9.83643 2.39378 9.011C2.64348 8.95563 2.89736 8.92117 3.15278 8.908L3.21778 8.906C3.34376 8.90302 3.4698 8.90302 3.59578 8.906C3.70378 8.911 3.81078 8.927 3.91778 8.94C4.00933 10.3159 4.3192 11.6685 4.83578 12.947C5.3867 14.3167 6.23119 15.5489 7.30978 16.557C6.88582 17.0504 6.38912 17.4763 5.83678 17.82ZM6.18778 12.334C5.78565 11.3338 5.52741 10.2817 5.42078 9.209C5.75409 9.32569 6.07286 9.48038 6.37078 9.67C7.36002 10.3503 8.05356 11.3813 8.31078 12.554C8.36503 12.7675 8.40512 12.9843 8.43078 13.203C8.50278 13.8908 8.40386 14.5857 8.14278 15.226C7.29347 14.4115 6.62707 13.4257 6.18778 12.334ZM7.92878 18.192C8.12373 17.9951 8.30831 17.7881 8.48178 17.572C8.71478 17.749 8.96678 17.904 9.21178 18.067C8.78951 18.1524 8.3596 18.1943 7.92878 18.192ZM13.3608 15.222C12.8102 16.1055 12.0505 16.8397 11.1488 17.36C10.4992 17.0317 9.87984 16.6469 9.29778 16.21C9.86942 14.9556 9.97887 13.5394 9.60678 12.212C9.26918 10.7164 8.37359 9.40589 7.10278 8.548C6.58362 8.21809 6.01756 7.9686 5.42378 7.808C5.43994 7.64204 5.46128 7.47663 5.48778 7.312C5.59309 6.76611 5.74876 6.23116 5.95278 5.714C6.03078 5.51533 6.11511 5.32067 6.20578 5.13L6.20978 5.123C6.34978 4.841 6.50578 4.556 6.69078 4.251L6.76378 4.131H6.76178C7.19186 3.45906 7.70752 2.84592 8.29578 2.307L8.52278 2.576C9.05278 3.204 9.55278 3.798 10.0058 4.341C11.0258 5.564 12.3478 7.169 12.8578 7.877C13.8053 9.08697 14.315 10.5822 14.3038 12.119C14.2658 13.2182 13.9407 14.2874 13.3608 15.222Z" fill="currentColor"/>
</svg>
