<svg width="14" height="15" viewBox="0 0 14 15" fill="none" xmlns="http://www.w3.org/2000/svg">
<path d="M10.4139 2.05125C10.2587 1.4639 9.91375 0.944319 9.43268 0.57334C8.95161 0.202361 8.3614 0.000793801 7.7539 0C7.55499 2.96403e-09 7.36422 0.0790176 7.22357 0.21967C7.08292 0.360322 7.0039 0.551088 7.0039 0.75C7.0039 0.948912 7.08292 1.13968 7.22357 1.28033C7.36422 1.42098 7.55499 1.5 7.7539 1.5C7.96882 1.50032 8.18003 1.55605 8.36714 1.66181C8.55424 1.76757 8.71091 1.91978 8.82203 2.10375C7.88092 2.31652 7.04002 2.8427 6.43715 3.59603C5.83428 4.34936 5.50522 5.28514 5.5039 6.25C5.5039 7.60875 5.13953 8.75875 4.4214 9.66813C3.65765 10.635 2.47265 11.3606 0.900152 11.8237C0.628864 11.9028 0.392379 12.0715 0.229268 12.3023C0.0661557 12.533 -0.0139577 12.8122 0.00199417 13.0944C0.017946 13.3765 0.129022 13.6449 0.317105 13.8558C0.505187 14.0667 0.759179 14.2076 1.03765 14.2556C1.98923 14.42 2.95324 14.5017 3.9189 14.5C6.51953 14.5 9.4189 13.9137 11.432 12.2262C13.1389 10.795 14.0039 8.78437 14.0039 6.25C14.0026 5.23755 13.6404 4.25872 12.9825 3.4892C12.3245 2.71968 11.4139 2.20986 10.4139 2.05125ZM9.7539 3.5C10.289 3.50013 10.8124 3.65637 11.26 3.94956C11.7076 4.24275 12.06 4.66016 12.2739 5.15063L11.7539 5.41125L10.0895 4.57875C9.98533 4.52661 9.87042 4.49946 9.7539 4.49946C9.63739 4.49946 9.52247 4.52661 9.41828 4.57875L7.7539 5.41125L7.2339 5.15063C7.44781 4.66016 7.80017 4.24275 8.24778 3.94956C8.69539 3.65637 9.21882 3.50013 9.7539 3.5ZM10.4683 11.0769C9.38078 11.9887 7.82265 12.6062 5.96203 12.8631C4.75557 13.0225 3.53467 13.0412 2.3239 12.9187C5.2414 11.7619 6.8414 9.635 6.9914 6.70687L7.41828 6.92063C7.52257 6.97244 7.63745 6.9994 7.7539 6.9994C7.87036 6.9994 7.98523 6.97244 8.08953 6.92063L9.7539 6.08813L11.4183 6.92063C11.5226 6.97244 11.6374 6.9994 11.7539 6.9994C11.8704 6.9994 11.9852 6.97244 12.0895 6.92063L12.4914 6.71938C12.3939 8.56688 11.7152 10.0312 10.4683 11.0769Z" fill="currentColor"/>
</svg>
