<svg width="22" height="22" viewBox="0 0 22 22" fill="none" xmlns="http://www.w3.org/2000/svg">
<path d="M10.5859 2L9 3.58594L10.0693 4.65527C10.2365 4.61055 10.4099 4.58594 10.5859 4.58594C11.1163 4.58598 11.625 4.79684 12 5.17188C12.375 5.54693 12.5859 6.05557 12.5859 6.58594C12.5859 6.76153 12.5592 6.93381 12.5146 7.10059L14.0693 8.65527C14.2365 8.61055 14.4099 8.58594 14.5859 8.58594C15.1163 8.58598 15.625 8.79684 16 9.17188C16.375 9.54694 16.5859 10.0556 16.5859 10.5859C16.5859 11.1163 16.375 11.625 16 12C15.625 12.375 15.1163 12.5859 14.5859 12.5859C14.0556 12.5859 13.5469 12.375 13.1719 12C12.7968 11.625 12.586 11.1163 12.5859 10.5859C12.5859 10.4099 12.6105 10.2365 12.6553 10.0693L11.5859 9V12.8555C11.7357 12.942 11.8756 13.0474 12 13.1719C12.375 13.5469 12.5859 14.0556 12.5859 14.5859C12.5859 15.1163 12.375 15.625 12 16C11.625 16.375 11.1163 16.5859 10.5859 16.5859C10.0556 16.5859 9.54694 16.375 9.17188 16C8.79684 15.625 8.58598 15.1163 8.58594 14.5859C8.58594 14.0555 8.7968 13.5469 9.17188 13.1719C9.29637 13.0474 9.43608 12.9421 9.58594 12.8555V8.31543C9.43626 8.22891 9.29625 8.12435 9.17188 8C8.79684 7.62496 8.58598 7.11631 8.58594 6.58594C8.58594 6.40989 8.61055 6.2365 8.65527 6.06934L7.58594 5L2 10.5859L10.5859 19.1719L19.1719 10.5859L10.5859 2ZM21.1719 10.5859C21.1718 11.05 21.0104 11.4977 20.7188 11.8535L20.5859 12L12 20.5859C11.625 20.9608 11.1162 21.1718 10.5859 21.1719C10.1219 21.1719 9.67424 21.0103 9.31836 20.7188L9.17188 20.5859L0.585938 12C0.211032 11.625 3.98932e-05 11.1162 0 10.5859C0 10.0556 0.210995 9.54693 0.585938 9.17188L9.17188 0.585938C9.54693 0.210995 10.0556 0 10.5859 0C11.1162 3.98933e-05 11.625 0.211032 12 0.585938L20.5859 9.17188L20.7188 9.31836C21.0103 9.67424 21.1719 10.1219 21.1719 10.5859Z" fill="currentColor"/>
</svg>
