<svg width="23" height="21" viewBox="0 0 23 21" fill="none" xmlns="http://www.w3.org/2000/svg">
<path d="M18 6H1.125C0.826631 6 0.540483 6.11853 0.329505 6.3295C0.118526 6.54048 0 6.82663 0 7.125V11.625C0.00352653 13.9896 0.898335 16.2659 2.50594 18H1.125C0.826631 18 0.540483 18.1185 0.329505 18.3295C0.118526 18.5405 0 18.8266 0 19.125C0 19.4234 0.118526 19.7095 0.329505 19.9205C0.540483 20.1315 0.826631 20.25 1.125 20.25H17.625C17.9234 20.25 18.2095 20.1315 18.4205 19.9205C18.6315 19.7095 18.75 19.4234 18.75 19.125C18.75 18.8266 18.6315 18.5405 18.4205 18.3295C18.2095 18.1185 17.9234 18 17.625 18H16.2441C17.0524 17.127 17.6886 16.1092 18.1191 15C19.1923 14.969 20.2112 14.5208 20.9592 13.7505C21.7072 12.9803 22.1254 11.9487 22.125 10.875V10.125C22.1238 9.03136 21.6888 7.98287 20.9154 7.20955C20.1421 6.43624 19.0936 6.00124 18 6ZM16.5 11.625C16.4976 12.9478 16.1283 14.2441 15.4332 15.3696C14.738 16.495 13.7443 17.4056 12.5625 18H6.1875C5.00571 17.4056 4.01198 16.495 3.31683 15.3696C2.62168 14.2441 2.25238 12.9478 2.25 11.625V8.25H16.5V11.625ZM19.875 10.875C19.8747 11.2494 19.7622 11.6151 19.5522 11.9251C19.3422 12.235 19.0442 12.475 18.6966 12.6141C18.7323 12.2856 18.7501 11.9554 18.75 11.625V8.4075C19.0842 8.55337 19.3687 8.79353 19.5685 9.09858C19.7683 9.40363 19.8748 9.76033 19.875 10.125V10.875ZM4.5 3.375V1.125C4.5 0.826631 4.61853 0.540483 4.8295 0.329505C5.04048 0.118526 5.32663 0 5.625 0C5.92337 0 6.20952 0.118526 6.4205 0.329505C6.63147 0.540483 6.75 0.826631 6.75 1.125V3.375C6.75 3.67337 6.63147 3.95952 6.4205 4.1705C6.20952 4.38147 5.92337 4.5 5.625 4.5C5.32663 4.5 5.04048 4.38147 4.8295 4.1705C4.61853 3.95952 4.5 3.67337 4.5 3.375ZM8.25 3.375V1.125C8.25 0.826631 8.36853 0.540483 8.5795 0.329505C8.79048 0.118526 9.07663 0 9.375 0C9.67337 0 9.95952 0.118526 10.1705 0.329505C10.3815 0.540483 10.5 0.826631 10.5 1.125V3.375C10.5 3.67337 10.3815 3.95952 10.1705 4.1705C9.95952 4.38147 9.67337 4.5 9.375 4.5C9.07663 4.5 8.79048 4.38147 8.5795 4.1705C8.36853 3.95952 8.25 3.67337 8.25 3.375ZM12 3.375V1.125C12 0.826631 12.1185 0.540483 12.3295 0.329505C12.5405 0.118526 12.8266 0 13.125 0C13.4234 0 13.7095 0.118526 13.9205 0.329505C14.1315 0.540483 14.25 0.826631 14.25 1.125V3.375C14.25 3.67337 14.1315 3.95952 13.9205 4.1705C13.7095 4.38147 13.4234 4.5 13.125 4.5C12.8266 4.5 12.5405 4.38147 12.3295 4.1705C12.1185 3.95952 12 3.67337 12 3.375Z" fill="currentColor"/>
</svg>
