<svg width="11" height="6" viewBox="0 0 11 6" fill="none" xmlns="http://www.w3.org/2000/svg">
<path d="M1.5 6C1.08333 6 0.729334 5.85433 0.438 5.563C0.146667 5.27167 0.000666667 4.91733 0 4.5V3.5H1.5V4.5H3V0H4.5V4.5C4.5 4.91667 4.35433 5.271 4.063 5.563C3.77167 5.855 3.41733 6.00067 3 6H1.5ZM7 6C6.71667 6 6.47933 5.904 6.288 5.712C6.09667 5.52 6.00067 5.28267 6 5V4H7.5V4.5H9.5V3.5H7C6.71667 3.5 6.47933 3.404 6.288 3.212C6.09667 3.02 6.00067 2.78267 6 2.5V1C6 0.716667 6.096 0.479333 6.288 0.288C6.48 0.0966668 6.71733 0.000666667 7 0H10C10.2833 0 10.521 0.0960001 10.713 0.288C10.905 0.48 11.0007 0.717333 11 1V2H9.5V1.5H7.5V2.5H10C10.2833 2.5 10.521 2.596 10.713 2.788C10.905 2.98 11.0007 3.21733 11 3.5V5C11 5.28333 10.904 5.521 10.712 5.713C10.52 5.905 10.2827 6.00067 10 6H7Z" fill="currentColor"/>
</svg>
