<svg width="24" height="24" viewBox="0 0 24 24" fill="none" xmlns="http://www.w3.org/2000/svg">
<path d="M11 18.5889V21.3038L17.5 17.7091V14.9893L11 18.5889ZM2 17.4112L9 21.3008V18.588L5.01465 16.3741C4.69718 16.1977 4.5 15.8632 4.5 15.5001V6.58796L2 5.19929V17.4112ZM7.5625 15.502L10 16.8565L16.4316 13.294L13.999 11.9425L7.5625 15.502ZM6.5 6.58796V13.8038L9 12.421V5.19929L6.5 6.58796ZM15 10.211L17.5 11.6007V8.88776L15 7.49909V10.211ZM19.5 8.88776V11.5948L22 10.21V7.49909L19.5 8.88776ZM16.0586 5.79987L18.5 7.15534L20.9414 5.79987L18.5 4.44343L16.0586 5.79987ZM3.05859 3.50007L5.5 4.85554L7.94141 3.50007L5.5 2.14362L3.05859 3.50007ZM11 11.3155L13 10.2091V5.79987C13.0001 5.43678 13.1972 5.10219 13.5146 4.92585L18.0146 2.42585L18.1309 2.37116C18.4075 2.26121 18.7212 2.27921 18.9854 2.42585L23.4854 4.92585C23.8028 5.10219 23.9999 5.43678 24 5.79987V10.7999C24 11.1635 23.8025 11.4987 23.4844 11.6749L19.5 13.8809V18.2999C19.5 18.6636 19.3025 18.9987 18.9844 19.1749L10.4844 23.8751C10.1827 24.0419 9.81602 24.0414 9.51465 23.8741L0.514648 18.8741C0.197183 18.6977 0 18.3632 0 18.0001V3.50007C0 3.1369 0.197183 2.80241 0.514648 2.62604L5.01465 0.126044L5.13086 0.0703804C5.40742 -0.0394686 5.72129 -0.0205914 5.98535 0.126044L10.4854 2.62604C10.8028 2.80241 11 3.1369 11 3.50007V11.3155Z" fill="currentColor"/>
</svg>
