<svg width="9" height="15" viewBox="0 0 9 15" fill="none" xmlns="http://www.w3.org/2000/svg">
<path d="M4.44522 0.5006L4.81422 0.1626C4.76738 0.111364 4.71037 0.0704466 4.64684 0.0424521C4.58331 0.0144576 4.51465 0 4.44522 0C4.3758 0 4.30714 0.0144576 4.24361 0.0424521C4.18008 0.0704466 4.12307 0.111364 4.07622 0.1626L4.44522 0.5006ZM4.44522 13.5006L4.05222 13.8096C4.09901 13.8691 4.1587 13.9172 4.22677 13.9502C4.29485 13.9833 4.36954 14.0005 4.44522 14.0005C4.52091 14.0005 4.5956 13.9833 4.66368 13.9502C4.73175 13.9172 4.79144 13.8691 4.83822 13.8096L4.44522 13.5006ZM4.94522 15.0006V0.5006H3.94522V15.0006H4.94522ZM4.83822 13.1916L1.96122 9.5306L1.17522 10.1486L4.05222 13.8106L4.83822 13.1916ZM2.18222 3.7086L4.81522 0.8386L4.07622 0.1626L1.44522 3.0326L2.18222 3.7086ZM4.07622 0.8386L6.70822 3.7086L7.44522 3.0336L4.81422 0.1636L4.07622 0.8386ZM6.92922 9.5296L4.05222 13.1916L4.83822 13.8096L7.71523 10.1486L6.92922 9.5296ZM6.70822 3.7096C7.42878 4.49621 7.84645 5.51322 7.88675 6.57921C7.92704 7.6452 7.58734 8.69084 6.92822 9.5296L7.71523 10.1486C8.52083 9.12326 8.93594 7.84405 8.88649 6.54102C8.83704 5.238 8.32623 3.99492 7.44522 3.0336L6.70822 3.7096ZM1.96122 9.5306C1.30225 8.69172 0.962715 7.64501 1.00319 6.57902C1.04367 5.51304 1.46153 4.49609 2.18222 3.7096L1.44522 3.0326C0.564215 3.99392 0.0534138 5.237 0.00395964 6.54002C-0.0454945 7.84305 0.369616 9.12126 1.17522 10.1466L1.96122 9.5306Z" fill="currentColor"/>
</svg>
