<svg width="12" height="11" viewBox="0 0 12 11" fill="none" xmlns="http://www.w3.org/2000/svg">
<path fill-rule="evenodd" clip-rule="evenodd" d="M9.87694 6.91696C9.92645 6.88853 9.96761 6.84757 9.99629 6.79821C10.025 6.74884 10.0402 6.69281 10.0404 6.63571L10.0463 4.7519C10.0464 4.6948 10.0616 4.63876 10.0903 4.5894C10.119 4.54003 10.1601 4.49907 10.2096 4.47065L11.2308 3.88409C11.3056 3.84118 11.3943 3.82968 11.4776 3.8521C11.5608 3.87453 11.6318 3.92905 11.6749 4.00371C11.7034 4.05315 11.7185 4.10925 11.7184 4.16634V7.59109C11.7185 7.64836 11.7034 7.70463 11.6747 7.7542C11.646 7.80377 11.6047 7.84487 11.555 7.87334L7.70119 10.0869C7.65196 10.1151 7.5962 10.13 7.53945 10.1301C7.48269 10.1301 7.42691 10.1154 7.37763 10.0872L4.35319 8.3574C4.30337 8.32893 4.26196 8.28781 4.23315 8.23819C4.20434 8.18857 4.18915 8.13222 4.18913 8.07484V6.34796C4.18913 6.34603 4.19144 6.34471 4.19338 6.34565C4.19376 6.34591 4.19422 6.34605 4.19468 6.34607C4.19515 6.34608 4.19561 6.34596 4.19601 6.34573C4.19641 6.3455 4.19674 6.34515 4.19696 6.34474C4.19718 6.34433 4.19728 6.34387 4.19725 6.3434V6.34146C4.19725 6.34015 4.19794 6.33884 4.19925 6.33821L6.69013 4.90721C6.69238 4.9059 6.69138 4.90234 6.68881 4.90234C6.68812 4.90232 6.68746 4.90204 6.68697 4.90155C6.68649 4.90106 6.6862 4.9004 6.68619 4.89971L6.69106 3.20665C6.69134 3.14939 6.67649 3.09308 6.64801 3.0434C6.61953 2.99373 6.57843 2.95246 6.52888 2.92378C6.47935 2.89507 6.42313 2.87992 6.36589 2.87987C6.30864 2.87981 6.25239 2.89485 6.20281 2.92346L4.35156 3.99021C4.30215 4.01865 4.24614 4.03362 4.18913 4.03362C4.13211 4.03362 4.0761 4.01865 4.02669 3.99021L2.16956 2.92084C2.12009 2.89233 2.06399 2.87734 2.0069 2.87736C1.9498 2.87739 1.89371 2.89244 1.84427 2.92101C1.79483 2.94957 1.75378 2.99063 1.72523 3.04008C1.69668 3.08953 1.68164 3.14562 1.68163 3.20271V6.26265C1.68168 6.31969 1.66675 6.37574 1.63833 6.42518C1.6099 6.47463 1.56898 6.51574 1.51966 6.54439C1.47034 6.57304 1.41436 6.58822 1.35733 6.58842C1.30029 6.58862 1.24421 6.57383 1.19469 6.54553L0.164063 5.95634C0.114154 5.92782 0.0726848 5.88659 0.0438689 5.83685C0.015053 5.78712 -8.25925e-05 5.73063 3.38976e-07 5.67315L0.00912533 0.324839C0.0092459 0.267821 0.0243418 0.211835 0.0529016 0.162486C0.0814615 0.113137 0.122483 0.0721549 0.171861 0.0436436C0.221238 0.0151323 0.277239 9.15546e-05 0.334256 2.70531e-05C0.391274 -3.74484e-05 0.447309 0.0148767 0.49675 0.0432762L4.027 2.07096C4.07634 2.09929 4.13224 2.11419 4.18913 2.11419C4.24602 2.11419 4.30191 2.09929 4.35125 2.07096L7.88056 0.0432762C7.95537 0.000283223 8.04418 -0.0112405 8.12748 0.0112394C8.21078 0.0337193 8.28173 0.088362 8.32475 0.163151C8.35325 0.212589 8.36819 0.268714 8.36819 0.325839V5.6754C8.3682 5.73263 8.35313 5.78886 8.32449 5.83841C8.29585 5.88796 8.25466 5.92909 8.20506 5.95765L6.35675 7.02209C6.30715 7.05077 6.26598 7.09201 6.23737 7.14165C6.20877 7.1913 6.19375 7.24761 6.19381 7.3049C6.19389 7.36221 6.20913 7.41849 6.23798 7.46801C6.26682 7.51754 6.30825 7.55855 6.35806 7.5869L7.37763 8.16728C7.42688 8.19538 7.48263 8.21011 7.53933 8.21C7.59604 8.20989 7.65173 8.19495 7.70088 8.16665L9.87694 6.91696ZM10.0908 2.11815C10.0909 2.17571 10.1062 2.23223 10.1352 2.28194C10.1642 2.33166 10.2059 2.37279 10.256 2.40115C10.3061 2.4295 10.3628 2.44406 10.4204 2.44335C10.478 2.44263 10.5343 2.42667 10.5837 2.39709L11.5603 1.81115C11.6084 1.78226 11.6483 1.74138 11.6761 1.6925C11.7038 1.64363 11.7184 1.58841 11.7184 1.53221V0.338151C11.7183 0.295118 11.7097 0.252535 11.693 0.21286C11.6763 0.173186 11.652 0.137205 11.6213 0.106994C11.5907 0.0767839 11.5544 0.0529427 11.5145 0.0368465C11.4745 0.0207504 11.4318 0.0127181 11.3888 0.0132135C11.3313 0.0139028 11.2749 0.0298635 11.2256 0.0594636L10.249 0.645401C10.2008 0.674254 10.1608 0.715128 10.1331 0.764029C10.1054 0.81293 10.0908 0.868187 10.0908 0.924401V2.1184V2.11815Z" fill="currentColor"/>
</svg>
