<svg width="21" height="21" viewBox="0 0 21 21" fill="none" xmlns="http://www.w3.org/2000/svg">
<path d="M0.720994 0.61547C1.35295 0.0510447 2.22526 -0.0794576 3.04033 0.0412508C3.78028 0.150895 4.56421 0.475466 5.32256 1.00316H5.99736L6.05595 1.00414C8.33017 1.1382 10.0057 1.75529 11.2444 2.74828C12.4779 3.7371 13.1812 5.0215 13.6507 6.31176C14.1077 7.56776 14.3818 8.95853 14.6653 10.0852C14.9274 11.1263 15.2028 11.9763 15.6106 12.6301C18.0186 13.3313 19.5515 15.2185 20.68 16.2717C20.9928 16.5639 21.0851 17.023 20.9095 17.4133C20.7336 17.8038 20.328 18.0392 19.9017 17.9983C19.1883 17.9299 18.6721 17.8733 18.2649 17.8371C18.3325 17.8901 18.4034 17.9432 18.4788 17.9954C18.7519 18.1843 19.0608 18.3591 19.4095 18.5461C19.7421 18.7246 20.1357 18.9267 20.4993 19.1379C20.9769 19.4154 21.1391 20.0276 20.8616 20.5051C20.5842 20.9824 19.9728 21.1445 19.4954 20.8674C19.1707 20.6788 18.842 20.5106 18.4642 20.3079C18.1022 20.1136 17.7111 19.8959 17.3411 19.6399C16.5895 19.1198 15.8634 18.4011 15.5374 17.2825C15.4006 16.813 15.6232 16.3138 16.0638 16.1018C16.4685 15.9073 16.8607 15.8245 17.2796 15.802C16.5583 15.1942 15.7793 14.7061 14.7757 14.4778C14.545 14.4253 14.3397 14.2928 14.1976 14.1038C13.422 13.0721 13.0298 11.7811 12.7259 10.5735C12.4055 9.30054 12.1811 8.124 11.7708 6.99633C11.3729 5.90293 10.8396 4.98714 9.99345 4.30883C9.15625 3.63769 7.9165 3.1222 5.96513 3.00316H4.99736C4.77662 3.00316 4.56189 2.92984 4.38701 2.79516C3.7603 2.31192 3.18243 2.08428 2.74736 2.01977C2.29437 1.95268 2.0968 2.06855 2.05303 2.10766C2.03573 2.12319 2.02055 2.14254 2.01006 2.18481C1.99794 2.23397 1.98647 2.34162 2.03154 2.52465C2.1139 2.8588 2.36755 3.36547 2.9456 4.01684L3.21416 4.30492L3.27666 4.37621C3.41436 4.5475 3.4927 4.7602 3.49736 4.98168C3.51968 6.0574 4.06949 6.82617 5.66533 8.25902C5.94919 8.514 6.06324 8.90849 5.95928 9.27563C5.6639 10.3187 5.31993 11.5022 5.21513 12.5315C5.16788 12.9958 5.17995 13.3665 5.23662 13.6428C5.24739 13.6315 5.25981 13.6214 5.2708 13.6096C5.60195 13.2548 5.93974 12.8047 6.15166 12.469L6.24248 12.3469C6.47301 12.0815 6.8301 11.9531 7.18291 12.0198C7.58621 12.0961 7.90262 12.4116 7.97978 12.8147C8.14658 13.6878 8.70018 14.796 9.43584 15.8498C10.1685 16.8993 10.9912 17.7664 11.5813 18.1907C12.0296 18.5131 12.1312 19.1378 11.8089 19.5862C11.4865 20.0346 10.8618 20.1371 10.4134 19.8147C9.57658 19.213 8.60422 18.1527 7.79619 16.9954C7.37628 16.3939 6.97692 15.7302 6.65556 15.053C6.46525 15.251 6.25825 15.4468 6.04521 15.6038C5.85044 15.7472 5.46681 16.0031 4.99736 16.0032C4.81809 16.0032 4.64185 15.9549 4.4876 15.8635C3.82669 15.472 3.47771 14.8531 3.31572 14.2258C3.15863 13.6175 3.16143 12.9518 3.2249 12.3284C3.3276 11.3199 3.61427 10.2252 3.86748 9.3225C2.61093 8.14684 1.685 7.01665 1.52275 5.42309C0.767176 4.58995 0.279445 3.77483 0.0891581 3.00219C-0.129762 2.11261 0.0447226 1.21969 0.720994 0.61547ZM7.00713 4.00316C7.55941 4.00316 8.00713 4.45088 8.00713 5.00316C8.0069 5.55526 7.55927 6.00316 7.00713 6.00316H6.99736C6.44522 6.00316 5.99759 5.55526 5.99736 5.00316C5.99736 4.45088 6.44508 4.00316 6.99736 4.00316H7.00713Z" fill="currentColor"/>
</svg>
