<svg width="20" height="20" viewBox="0 0 20 20" fill="none" xmlns="http://www.w3.org/2000/svg">
<path d="M15.664 15.65L8.26 6H6V14H8V8.946L14.087 16.879C12.3382 17.9195 10.2585 18.2545 8.27142 17.8157C6.28432 17.3769 4.53912 16.1973 3.39108 14.5171C2.24304 12.8369 1.77846 10.7823 2.09191 8.77163C2.40536 6.76094 3.47327 4.94527 5.07827 3.69423C6.68327 2.44319 8.7047 1.85081 10.7311 2.03768C12.7575 2.22455 14.6365 3.17663 15.9856 4.7001C17.3347 6.22357 18.0526 8.20392 17.993 10.238C17.9335 12.2721 17.101 14.2071 15.665 15.649M10 20C15.523 20 20 15.523 20 10C20 4.477 15.523 0 10 0C4.477 0 0 4.477 0 10C0 15.523 4.477 20 10 20ZM12 10V6H14V10H12Z" fill="currentColor"/>
</svg>
