<svg width="12" height="14" viewBox="0 0 12 14" fill="none" xmlns="http://www.w3.org/2000/svg">
<path d="M11.43 3.0649L6.57283 0.151771C6.39836 0.0523071 6.201 0 6.00017 0C5.79935 0 5.60198 0.0523071 5.42752 0.151771L0.570016 3.06458C0.394965 3.17185 0.250539 3.32246 0.150691 3.50185C0.0508419 3.68124 -0.00105419 3.88334 1.62295e-05 4.08865V9.90646C-0.00103397 10.1119 0.0508626 10.3141 0.150702 10.4936C0.250541 10.6732 0.394954 10.824 0.570016 10.9315L1.84377 11.6921L1.85095 11.6961C2.49408 12.0252 2.74033 12.0252 3.02564 12.0252C4.03002 12.0252 4.65408 11.3752 4.65408 10.3286V4.68771C4.65466 4.61728 4.62729 4.5495 4.57796 4.49924C4.52863 4.44897 4.46138 4.42033 4.39095 4.41958H3.69158C3.62116 4.42033 3.5539 4.44897 3.50457 4.49924C3.45525 4.5495 3.42787 4.61728 3.42845 4.68771V10.3286C3.431 10.4094 3.41263 10.4894 3.37512 10.561C3.33761 10.6326 3.28225 10.6932 3.21439 10.7371C3.03002 10.8496 2.7622 10.8258 2.46002 10.6699L1.23939 9.93521C1.23472 9.93202 1.2309 9.92773 1.22829 9.92271C1.22567 9.9177 1.22433 9.91211 1.22439 9.90646V4.17083C1.22459 4.16424 1.22637 4.15779 1.22958 4.15203C1.23279 4.14626 1.23733 4.14135 1.24283 4.13771L5.98783 1.23146C5.99137 1.2297 5.99528 1.22878 5.99924 1.22878C6.00319 1.22878 6.0071 1.2297 6.01064 1.23146L10.7585 4.13771C10.7639 4.14165 10.7682 4.14683 10.7712 4.15281C10.7742 4.15879 10.7757 4.1654 10.7756 4.17208V9.90646C10.7758 9.91238 10.7746 9.91826 10.7721 9.92367C10.7697 9.92907 10.7661 9.93387 10.7616 9.93771L6.0097 12.7705C6.00161 12.7733 5.9928 12.7733 5.9847 12.7705L4.77127 12.0499C4.73524 12.0263 4.69363 12.0128 4.65065 12.0105C4.60767 12.0083 4.56486 12.0174 4.52658 12.0371L4.51595 12.0433C4.18095 12.2418 4.09095 12.2933 3.78033 12.4065C3.7297 12.4249 3.61064 12.469 3.60033 12.5868C3.59002 12.7046 3.70314 12.7883 3.80377 12.8468L5.42564 13.8427C5.59845 13.9462 5.79608 14.001 5.99752 14.0011H6.01564C6.21204 13.9981 6.40419 13.9434 6.57283 13.8427L11.43 10.9324C11.605 10.8246 11.7493 10.6736 11.8491 10.4939C11.9489 10.3143 12.0009 10.112 12 9.90646V4.08865C12.001 3.8834 11.9491 3.68137 11.8492 3.50205C11.7494 3.32272 11.605 3.17216 11.43 3.0649Z" fill="currentColor"/>
<path d="M7.62127 8.93927C6.45595 8.93927 6.20752 8.61365 6.13377 8.08802C6.12546 8.02544 6.09496 7.96792 6.04781 7.92594C6.00067 7.88395 5.94001 7.86029 5.87689 7.85927H5.25814C5.18841 7.86075 5.1221 7.88979 5.07372 7.94004C5.02534 7.99029 4.99884 8.05765 5.00002 8.1274C5.00002 8.58302 5.16002 10.0702 7.62252 10.0702C8.38439 10.0702 9.01814 9.89208 9.4547 9.5549C9.89127 9.21771 10.125 8.72708 10.125 8.1424C10.125 6.96896 9.35939 6.64771 7.85158 6.43771C6.31877 6.22458 6.31877 6.11615 6.31877 5.87865C6.31877 5.70771 6.31877 5.3074 7.42689 5.3074C8.21533 5.3074 8.63752 5.40708 8.77252 5.9324C8.78447 5.99064 8.81596 6.04305 8.86176 6.08095C8.90757 6.11886 8.96494 6.13998 9.02439 6.14083H9.64533C9.68192 6.14047 9.71802 6.13231 9.75121 6.1169C9.78441 6.10149 9.81394 6.07918 9.83783 6.05146C9.8856 5.99574 9.90941 5.9234 9.90408 5.85021C9.82377 4.73927 9.01158 4.17583 7.42783 4.17583C5.98845 4.17583 5.12939 4.82427 5.12939 5.91021C5.12939 7.10083 6.0197 7.4374 7.3572 7.57677C8.9197 7.73833 8.9197 7.97396 8.9197 8.18208C8.92064 8.50646 8.78595 8.93927 7.62127 8.93927Z" fill="currentColor"/>
</svg>
