<svg width="13" height="16" viewBox="0 0 13 16" fill="none" xmlns="http://www.w3.org/2000/svg">
<path d="M0.293542 15.7468C0.127542 15.1493 0.260166 13.955 0.557291 13.3728C0.690041 13.1123 0.690042 13.1123 0.492417 12.7476C-0.0120834 11.816 -0.0463334 10.4627 0.405917 9.33285C0.577167 8.90485 0.577166 8.90485 0.406291 8.58797C-0.296084 7.28672 -0.0747086 5.73047 0.969041 4.63047C1.42154 4.1536 1.42154 4.1536 1.36604 3.8161C1.18629 2.72435 1.41267 1.23897 1.85892 0.582349C2.66442 -0.603151 3.88904 0.105599 4.21554 1.9461C4.25967 2.19485 4.30354 2.4091 4.31304 2.42197C4.32254 2.43485 4.53529 2.36347 4.78554 2.26335C5.69154 1.90085 6.53592 1.91335 7.37067 2.30135C7.60817 2.41185 7.80754 2.4941 7.81342 2.4841C7.81942 2.4741 7.85942 2.25122 7.90229 1.9886C8.20729 0.124974 9.44992 -0.615151 10.2635 0.582349C10.7102 1.2396 10.9369 2.72985 10.7557 3.8161C10.6993 4.1536 10.6993 4.1536 11.1174 4.59235C12.165 5.69147 12.4005 7.26447 11.7087 8.54172C11.5224 8.88585 11.5224 8.88585 11.684 9.25347C12.1657 10.3488 12.1432 11.8 11.63 12.7476C11.4324 13.1123 11.4324 13.1123 11.5653 13.3728C11.8623 13.955 11.9949 15.1492 11.829 15.7468C11.7587 16 11.7587 16 11.3147 16C10.8707 16 10.8707 16 10.9297 15.7806C11.0892 15.1886 11.001 14.2417 10.7347 13.6811C10.4264 13.0331 10.4265 13.0397 10.7222 12.5606C11.2955 11.6318 11.3077 10.4333 10.7547 9.3586C10.4967 8.85735 10.4984 8.79997 10.7864 8.37222C11.8708 6.76085 10.8182 4.56785 8.91379 4.47097C8.32379 4.44097 8.32379 4.44097 8.17842 4.14985C7.37317 2.53735 4.93742 2.46235 3.99592 4.02097C3.75279 4.4236 3.75279 4.4236 3.18567 4.4606C1.22729 4.58872 0.0617914 7.24685 1.40917 8.51247C1.62317 8.7136 1.61517 8.87797 1.36792 9.3586C0.814791 10.4333 0.826916 11.6318 1.40017 12.5606C1.69592 13.0397 1.69592 13.0331 1.38792 13.6811C1.12129 14.2417 1.03329 15.1886 1.19279 15.7806C1.25179 16 1.25179 16 0.807792 16C0.363792 16 0.363791 16 0.293416 15.7468H0.293542ZM2.89229 3.60572C3.45529 3.54822 3.49492 3.4826 3.43954 2.70197C3.36029 1.5866 2.96017 0.702599 2.65817 0.975974C2.24617 1.34872 1.96367 3.83822 2.35004 3.68985C2.40592 3.66847 2.65004 3.6306 2.89229 3.60572ZM9.90604 2.86497C9.90104 1.52572 9.52842 0.607724 9.16229 1.03322C8.83304 1.41597 8.52104 3.07322 8.71329 3.41722C8.77842 3.53372 9.60029 3.7261 9.84129 3.68122C9.88192 3.67372 9.90767 3.34972 9.90604 2.86497ZM5.07767 10.444C2.63292 9.75397 3.43329 6.7376 6.06117 6.7376C8.42992 6.7376 9.45104 9.25735 7.48829 10.2595C6.96067 10.529 5.71592 10.6242 5.07767 10.444ZM7.18692 9.77497C8.65317 9.10372 7.83192 7.29247 6.06117 7.29247C4.04067 7.29247 3.44554 9.44685 5.33454 9.92335C5.80604 10.0422 6.77192 9.96485 7.18692 9.77497ZM5.82492 8.99622C5.82492 8.80072 5.78204 8.69685 5.65617 8.58747C5.34142 8.31372 5.48279 8.18797 6.09492 8.1971C6.59404 8.20435 6.73567 8.38172 6.41942 8.60335C6.30417 8.68422 6.26367 8.77797 6.26367 8.96435C6.26367 9.19897 6.24879 9.21747 6.04429 9.23722C5.83092 9.25772 5.82492 9.25122 5.82492 8.99622ZM2.54817 7.8691C2.35867 7.6796 2.33729 7.44035 2.48442 7.15585C2.76942 6.60472 3.52992 6.7791 3.52992 7.3956C3.52992 7.9256 2.90567 8.2266 2.54817 7.8691ZM8.78979 7.83747C8.53192 7.5796 8.51879 7.22485 8.75817 6.98547C9.03617 6.70747 9.44729 6.7871 9.63817 7.15585C9.96954 7.7971 9.29304 8.3406 8.78979 7.83747Z" fill="currentColor"/>
</svg>
