<svg width="21" height="20" viewBox="0 0 21 20" fill="none" xmlns="http://www.w3.org/2000/svg">
<path fill-rule="evenodd" clip-rule="evenodd" d="M8.19592 3.57519e-07C8.8964 -0.00029576 9.58467 0.183359 10.1919 0.532591C10.7991 0.881823 11.3039 1.38439 11.6559 1.99L11.7539 2.172L12.3919 1.804C13.1529 1.3644 14.0376 1.18767 14.9091 1.30114C15.7806 1.4146 16.5905 1.81193 17.2136 2.43173C17.8367 3.05154 18.2383 3.8593 18.3564 4.7302C18.4745 5.6011 18.3025 6.48665 17.8669 7.25L17.7539 7.436L18.3919 7.804C19.1529 8.24338 19.748 8.92112 20.0854 9.73252C20.4227 10.5439 20.4835 11.4438 20.2582 12.2932C20.033 13.1426 19.5344 13.8942 18.8394 14.4318C18.1444 14.9695 17.2916 15.2634 16.4129 15.268L16.1959 15.264V16C16.1962 16.8798 15.9064 17.7351 15.3714 18.4335C14.8365 19.1319 14.0862 19.6345 13.2367 19.8634C12.3872 20.0923 11.486 20.0348 10.6725 19.6997C9.85906 19.3647 9.17874 18.7708 8.73692 18.01L8.63692 17.828L7.99992 18.196C7.2389 18.6356 6.35427 18.8123 5.48276 18.6989C4.61124 18.5854 3.80136 18.1881 3.17825 17.5683C2.55515 16.9485 2.15352 16.1407 2.03543 15.2698C1.91734 14.3989 2.08937 13.5134 2.52492 12.75L2.63792 12.564L1.99992 12.196C1.23893 11.7566 0.643805 11.0789 0.306477 10.2675C-0.0308518 9.45608 -0.0916077 8.55619 0.133595 7.70681C0.358799 6.85743 0.857428 6.10585 1.55245 5.56817C2.24747 5.03049 3.10021 4.73663 3.97892 4.732L4.19592 4.736V4C4.19592 2.93913 4.61735 1.92172 5.36749 1.17157C6.11764 0.421428 7.13506 3.57519e-07 8.19592 3.57519e-07ZM12.8979 10.788L12.8299 14.847C12.8275 14.9976 12.791 15.1457 12.7233 15.2802C12.6556 15.4148 12.5584 15.5323 12.4389 15.624L12.3299 15.696L10.3739 16.826C10.5583 17.2296 10.8715 17.5605 11.2644 17.7668C11.6573 17.973 12.1076 18.0429 12.5445 17.9654C12.9815 17.8879 13.3803 17.6674 13.6783 17.3387C13.9763 17.0099 14.1566 16.5914 14.1909 16.149L14.1959 16V11.566L12.8979 10.787V10.788ZM10.8649 12.734L7.31492 14.704C7.16401 14.7878 6.99398 14.8311 6.82137 14.8297C6.64876 14.8283 6.47945 14.7822 6.32992 14.696L4.37392 13.566C4.10818 13.9377 3.97765 14.3891 4.00402 14.8453C4.0304 15.3014 4.21209 15.7348 4.51889 16.0734C4.8257 16.412 5.23914 16.6354 5.69049 16.7064C6.14185 16.7775 6.60393 16.6919 6.99992 16.464L10.8399 14.247L10.8649 12.734ZM13.5519 7.319L12.2289 8.054L15.7109 10.143C15.8588 10.2319 15.9812 10.3575 16.0662 10.5077C16.1512 10.6578 16.1959 10.8274 16.1959 11V13.259C16.6501 13.3019 17.1053 13.1884 17.4862 12.9373C17.867 12.6862 18.1507 12.3125 18.2902 11.8782C18.4298 11.4439 18.4168 10.9749 18.2534 10.549C18.09 10.123 17.7861 9.76563 17.3919 9.536L13.5519 7.319ZM4.19592 6.74C3.75447 6.69708 3.31127 6.80205 2.93596 7.03841C2.56066 7.27477 2.27451 7.62912 2.1225 8.04579C1.97048 8.46246 1.96121 8.91783 2.09614 9.34034C2.23107 9.76285 2.50255 10.1286 2.86792 10.38L2.99992 10.463L6.83992 12.68L8.16292 11.945L4.68092 9.857C4.55169 9.77944 4.44167 9.67368 4.35907 9.54762C4.27647 9.42155 4.22343 9.27845 4.20392 9.129L4.19592 9V6.74ZM8.19592 2C7.66549 2 7.15678 2.21071 6.78171 2.58579C6.40664 2.96086 6.19592 3.46957 6.19592 4V8.434L7.49392 9.213L7.56192 5.153C7.5647 4.98019 7.61223 4.81105 7.69986 4.66208C7.78749 4.51311 7.91223 4.38939 8.06192 4.303L10.0179 3.174C9.85916 2.82391 9.60288 2.52699 9.27975 2.31878C8.95661 2.11057 8.58032 1.9999 8.19592 2ZM16.1239 4.268C15.8722 3.83196 15.4654 3.50687 14.9845 3.35765C14.5037 3.20843 13.9842 3.24605 13.5299 3.463L13.3919 3.536L9.55192 5.753L9.52692 7.266L13.0769 5.296C13.2085 5.22287 13.3549 5.18039 13.5052 5.17173C13.6555 5.16307 13.8058 5.18846 13.9449 5.246L14.0619 5.304L16.0189 6.434C16.4609 5.814 16.5289 4.969 16.1239 4.268Z" fill="currentColor"/>
</svg>
