<svg width="21" height="10" viewBox="0 0 21 10" fill="none" xmlns="http://www.w3.org/2000/svg">
<path d="M0.160857 9.51975H1.73086C1.76477 9.5201 1.79765 9.50812 1.8234 9.48605C1.84915 9.46398 1.86601 9.43332 1.87086 9.39975L2.22086 7.57975H3.44086C3.95154 7.5922 4.46103 7.52472 4.95086 7.37975C5.34752 7.2482 5.70971 7.02952 6.01086 6.73975C6.28083 6.49651 6.50741 6.20907 6.68086 5.88975C6.85254 5.57735 6.97402 5.23989 7.04086 4.88975C7.1471 4.52283 7.16535 4.13602 7.09411 3.76073C7.02287 3.38544 6.86416 3.03222 6.63086 2.72975C6.36054 2.45507 6.03335 2.2429 5.67229 2.10815C5.31123 1.9734 4.92504 1.91933 4.54086 1.94975H1.54086C1.50487 1.95137 1.47048 1.96509 1.44326 1.98868C1.41604 2.01227 1.39758 2.04436 1.39086 2.07975L0.0108572 9.33975C-0.00361907 9.38187 -0.00361907 9.42763 0.0108572 9.46975C0.029939 9.48961 0.053561 9.50454 0.0796905 9.51325C0.10582 9.52196 0.133675 9.52419 0.160857 9.51975ZM3.01086 3.35975H4.01086C4.20111 3.33419 4.39454 3.34667 4.57994 3.39645C4.76533 3.44623 4.939 3.53233 5.09086 3.64975C5.26086 3.82975 5.29086 4.16975 5.20086 4.64975C5.15158 5.07944 4.94924 5.47702 4.63086 5.76975C4.2348 6.02052 3.7682 6.13629 3.30086 6.09975H2.50086L3.01086 3.35975ZM12.8109 2.40975C12.2695 2.01174 11.5992 1.82989 10.9309 1.89975H9.74086L10.0709 0.13975C10.0806 0.119469 10.0857 0.0972539 10.0857 0.0747503C10.0857 0.0522466 10.0806 0.0300313 10.0709 0.00975021C10.0353 -0.00325007 9.99637 -0.00325007 9.96086 0.00975021H8.39086C8.35695 0.00940263 8.32406 0.0213763 8.29831 0.0434469C8.27256 0.0655174 8.2557 0.0961842 8.25086 0.12975L6.87086 7.39975C6.86122 7.41828 6.85618 7.43886 6.85618 7.45975C6.85618 7.48064 6.86122 7.50122 6.87086 7.51975C6.88265 7.53821 6.89892 7.55339 6.91815 7.56388C6.93738 7.57437 6.95895 7.57983 6.98086 7.57975H8.52086C8.55632 7.57984 8.59049 7.56647 8.61648 7.54234C8.64246 7.51821 8.65832 7.48512 8.66086 7.44975L9.43086 3.37975H10.5409C10.9909 3.37975 11.1509 3.47975 11.2009 3.53975C11.2421 3.6379 11.2634 3.74329 11.2634 3.84975C11.2634 3.95621 11.2421 4.06161 11.2009 4.15975L10.5909 7.39975C10.5812 7.41828 10.5762 7.43886 10.5762 7.45975C10.5762 7.48064 10.5812 7.50122 10.5909 7.51975C10.6033 7.53761 10.6197 7.55233 10.6388 7.56274C10.6579 7.57316 10.6791 7.57898 10.7009 7.57975H12.2609C12.2968 7.57813 12.3312 7.56442 12.3585 7.54082C12.3857 7.51723 12.4041 7.48514 12.4109 7.44975L13.0509 4.04975C13.1541 3.77863 13.1863 3.48559 13.1443 3.19852C13.1023 2.91145 12.9875 2.63992 12.8109 2.40975ZM17.3309 1.89975H14.2009C14.1825 1.89839 14.164 1.90068 14.1465 1.90648C14.129 1.91229 14.1128 1.92149 14.0988 1.93357C14.0849 1.94565 14.0735 1.96037 14.0652 1.97687C14.057 1.99338 14.0521 2.01135 14.0509 2.02975L12.5909 9.33975C12.5818 9.36021 12.5771 9.38236 12.5771 9.40475C12.5771 9.42714 12.5818 9.44929 12.5909 9.46975C12.6043 9.48577 12.6212 9.49858 12.6402 9.50723C12.6592 9.51588 12.68 9.52016 12.7009 9.51975H14.3309C14.3664 9.52265 14.4018 9.51184 14.4297 9.48953C14.4576 9.46723 14.4759 9.43511 14.4809 9.39975L14.8509 7.57975H16.1209C16.6479 7.59104 17.1737 7.52363 17.6809 7.37975C18.1175 7.25829 18.5209 7.03948 18.8609 6.73975C19.1401 6.49762 19.3768 6.21029 19.5609 5.88975C19.7345 5.57727 19.8593 5.24002 19.9309 4.88975C20.0399 4.52249 20.0586 4.13435 19.9855 3.7583C19.9124 3.38225 19.7495 3.0294 19.5109 2.72975C19.2285 2.44283 18.8876 2.22016 18.5114 2.07692C18.1352 1.93369 17.7325 1.87326 17.3309 1.89975ZM17.9509 4.66975C17.891 5.10276 17.6782 5.50006 17.3509 5.78975C16.9405 6.04166 16.4609 6.15718 15.9809 6.11975H15.1809L15.7209 3.35975H16.7209C17.1206 3.31076 17.5241 3.41431 17.8509 3.64975C18.0109 3.82975 18.0109 4.16975 17.9509 4.66975Z" fill="currentColor"/>
</svg>
