<svg width="20" height="22" viewBox="0 0 20 22" fill="none" xmlns="http://www.w3.org/2000/svg">
<path d="M14 15C14 14.7348 13.8946 14.4805 13.707 14.293C13.5195 14.1054 13.2652 14 13 14C11.9122 14 10.8613 13.645 10.001 13H8C5.87827 13 3.84306 12.1575 2.34277 10.6572C0.842482 9.15694 0 7.12173 0 5V4C0 1.74772 1.74772 0 4 0H7C8.57336 0 10.0185 0.79043 10.9316 2H15C16.3261 2 17.5975 2.52716 18.5352 3.46484C19.4728 4.40253 20 5.67392 20 7V15C20 18.8523 16.8523 22 13 22C11.2803 22 9.54404 21.6788 8.00586 21.0195C7.96434 21.0017 7.92448 20.9803 7.88574 20.957C7.45915 20.7011 7.0783 20.2819 6.97754 19.7109C6.87292 19.1173 7.10927 18.5773 7.49316 18.1934L8.13965 17.5449L8.20508 16.9004L8.21387 16.8359C8.2943 16.3533 8.53225 15.8304 9.05371 15.5322C9.51104 15.2709 10.0003 15.2879 10.4043 15.4121L10.5713 15.4717L10.6055 15.4854C11.3602 15.8197 12.1756 15.9942 13.001 15.999C13.2658 15.9988 13.5197 15.8943 13.707 15.707C13.8946 15.5195 14 15.2652 14 15ZM13.5 8C14.0523 8 14.5 8.44772 14.5 9C14.5 9.55228 14.0523 10 13.5 10H13C12.4477 10 12 9.55228 12 9C12 8.44772 12.4477 8 13 8H13.5ZM2 5L2.00781 5.29785C2.08146 6.7807 2.703 8.18738 3.75781 9.24219C4.88303 10.3674 6.4087 11 8 11H8.41895C8.14607 10.375 8 9.69522 8 9C8 8.44772 8.44772 8 9 8C9.55228 8 10 8.44772 10 9C10 9.79565 10.3163 10.5585 10.8789 11.1211C10.88 11.1222 10.8817 11.1229 10.8828 11.124C11.0024 11.1901 11.1062 11.2805 11.1895 11.3877C11.6296 11.7214 12.1521 11.9306 12.7031 11.9854L13.2969 12.0146C13.9835 12.0829 14.6289 12.3867 15.1211 12.8789C15.6837 13.4415 16 14.2043 16 15C16 15.7957 15.6837 16.5585 15.1211 17.1211C14.5585 17.6837 13.7957 18 13 18H12.9951C12.0237 17.995 11.0625 17.8125 10.1582 17.4639L10.0947 18.0996C10.0717 18.3293 9.96984 18.5438 9.80664 18.707L9.18066 19.333C10.3507 19.772 11.6682 20 13 20C15.7477 20 18 17.7477 18 15V7C18 6.20435 17.6837 5.44152 17.1211 4.87891C16.5585 4.3163 15.7956 4 15 4H10.4004C10.0447 4 9.71534 3.81112 9.53613 3.50391C9.00283 2.58969 8.02018 2 7 2H4C2.85228 2 2 2.85228 2 4V5Z" fill="currentColor"/>
</svg>
