<svg width="20" height="20" viewBox="0 0 20 20" fill="none" xmlns="http://www.w3.org/2000/svg">
<path d="M13.75 3.97754C13.7499 3.24709 13.5739 2.72049 13.2148 2.43945L12.9873 2.27637C12.4072 1.89208 11.463 1.5 10 1.5C8.3269 1.5 7.33286 2.01194 6.78516 2.43945C6.42611 2.72049 6.25007 3.24709 6.25 3.97754V4.75H10C10.4142 4.75 10.75 5.08579 10.75 5.5C10.75 5.91421 10.4142 6.25 10 6.25H3.97754C3.24709 6.25007 2.72049 6.42611 2.43945 6.78516C2.01194 7.33286 1.5 8.3269 1.5 10C1.5 11.6714 2.01112 12.6661 2.43848 13.2139C2.71939 13.5733 3.24665 13.7499 3.97754 13.75H4.75V12C4.75 11.2707 5.03994 10.5714 5.55566 10.0557C6.07139 9.53994 6.77065 9.25 7.5 9.25H12.5C12.8315 9.25 13.1494 9.11821 13.3838 8.88379C13.6182 8.64937 13.75 8.33152 13.75 8V3.97754ZM15.25 8C15.25 8.72935 14.9601 9.42861 14.4443 9.94434C13.9286 10.4601 13.2293 10.75 12.5 10.75H7.5C7.16848 10.75 6.85063 10.8818 6.61621 11.1162C6.38179 11.3506 6.25 11.6685 6.25 12V16.0225C6.25007 16.7521 6.42617 17.2796 6.78516 17.5605C7.33281 17.988 8.32783 18.5 10 18.5C11.6729 18.5 12.6664 17.9886 13.2139 17.5605L13.2148 17.5596C13.5734 17.2799 13.7499 16.7529 13.75 16.0215V15.25H10C9.58579 15.25 9.25 14.9142 9.25 14.5C9.25 14.0858 9.58579 13.75 10 13.75H16.0215C16.7529 13.7499 17.2799 13.5734 17.5596 13.2148L17.5605 13.2139C17.9886 12.6664 18.5 11.6729 18.5 10C18.5 8.32783 17.988 7.33281 17.5605 6.78516C17.2794 6.42658 16.7516 6.25007 16.0225 6.25H15.25V8ZM15.25 4.75H16.0225C16.849 4.75007 17.8901 4.92563 18.6045 5.69922L18.7432 5.8623C19.3757 6.67265 20 7.99217 20 10C20 11.8835 19.4514 13.1603 18.8604 13.9805L18.7422 14.1377C18.0301 15.0505 16.9036 15.2499 16.0215 15.25H15.25V16.0215C15.2499 16.8487 15.0744 17.8907 14.2998 18.6045L14.1377 18.7422C13.3271 19.376 12.0085 20 10 20C8.11759 20 6.84051 19.4511 6.02051 18.8613L5.8623 18.7432C4.94995 18.0302 4.75007 16.9041 4.75 16.0225V15.25H3.97754C3.14996 15.2499 2.10972 15.0743 1.39551 14.3008L1.25684 14.1377C0.624312 13.3273 0 12.0078 0 10C0 7.9911 0.624353 6.6726 1.25684 5.8623L1.39551 5.69922C2.10972 4.92569 3.14996 4.75007 3.97754 4.75H4.75V3.97754C4.75007 3.09473 4.95002 1.96974 5.8623 1.25684L6.02051 1.13867C6.84035 0.548915 8.1166 0 10 0C11.8824 0 13.1595 0.548881 13.9795 1.13867L14.1377 1.25684C15.05 1.96974 15.2499 3.09473 15.25 3.97754V4.75Z" fill="currentColor"/>
<path d="M13 16.5C13 16.6989 12.921 16.8897 12.7803 17.0303C12.6397 17.171 12.4489 17.25 12.25 17.25C12.0511 17.25 11.8603 17.171 11.7197 17.0303C11.579 16.8897 11.5 16.6989 11.5 16.5C11.5 16.3011 11.579 16.1103 11.7197 15.9697C11.8603 15.829 12.0511 15.75 12.25 15.75C12.4489 15.75 12.6397 15.829 12.7803 15.9697C12.921 16.1103 13 16.3011 13 16.5ZM7 3.5C7 3.30109 7.07902 3.11032 7.21967 2.96967C7.36032 2.82902 7.55109 2.75 7.75 2.75C7.94891 2.75 8.13968 2.82902 8.28033 2.96967C8.42098 3.11032 8.5 3.30109 8.5 3.5C8.5 3.69891 8.42098 3.88968 8.28033 4.03033C8.13968 4.17098 7.94891 4.25 7.75 4.25C7.55109 4.25 7.36032 4.17098 7.21967 4.03033C7.07902 3.88968 7 3.69891 7 3.5Z" fill="currentColor"/>
</svg>
