<svg width="19" height="19" viewBox="0 0 19 19" fill="none" xmlns="http://www.w3.org/2000/svg">
<path d="M17.9279 12.3001C17.4561 11.2756 16.8912 10.2964 16.2404 9.37512C16.8912 8.4538 17.4561 7.47469 17.9279 6.45012C19.0379 3.98356 19.0239 1.99887 17.8876 0.862623C16.7514 -0.273627 14.7667 -0.287689 12.3001 0.822311C11.2756 1.29415 10.2964 1.85902 9.37512 2.50981C8.4538 1.85902 7.47469 1.29415 6.45012 0.822311C3.98356 -0.287689 1.99887 -0.273627 0.862623 0.862623C-0.273627 1.99887 -0.287689 3.98356 0.822311 6.45012C1.29415 7.47469 1.85902 8.4538 2.50981 9.37512C1.85902 10.2964 1.29415 11.2756 0.822311 12.3001C-0.287689 14.7667 -0.273627 16.7514 0.862623 17.8876C1.43731 18.4623 2.2295 18.7501 3.18762 18.7501C4.12512 18.7501 5.22856 18.4764 6.44637 17.9279C7.47094 17.4561 8.45005 16.8912 9.37137 16.2404C10.2927 16.8912 11.2718 17.4561 12.2964 17.9279C13.5151 18.4764 14.6157 18.7501 15.5551 18.7501C16.517 18.7501 17.3092 18.4623 17.8839 17.8876C19.0239 16.7514 19.0379 14.7667 17.9279 12.3001ZM16.2957 2.45637C16.7879 2.9495 16.4636 4.89387 14.7957 7.49825C14.2698 6.87387 13.7036 6.25606 13.1017 5.65419C12.4998 5.05231 11.8782 4.48419 11.2501 3.95825C13.8582 2.28669 15.8026 1.96231 16.2957 2.4545V2.45637ZM13.4289 9.37512C12.8261 10.119 12.1842 10.8303 11.5061 11.5061C10.8303 12.1842 10.119 12.8261 9.37512 13.4289C8.63129 12.8261 7.91998 12.1842 7.24419 11.5061C6.566 10.8303 5.92416 10.119 5.32137 9.37512C6.53031 7.88868 7.88868 6.53031 9.37512 5.32137C10.1192 5.92392 10.8305 6.56577 11.5061 7.24418C12.1845 7.91976 12.8263 8.63109 13.4289 9.37512ZM2.4545 2.4545C2.59137 2.31856 2.83887 2.2445 3.18106 2.2445C4.0745 2.2445 5.61294 2.74981 7.49356 3.95825C6.86919 4.48419 6.25137 5.05044 5.6495 5.65231C5.04762 6.25419 4.48419 6.872 3.95825 7.50012C2.28669 4.892 1.96231 2.94762 2.4545 2.4545ZM2.4545 16.2957C1.96231 15.8026 2.28669 13.8582 3.9545 11.2539C4.48044 11.8782 5.04669 12.4961 5.64856 13.0979C6.25044 13.6998 6.86731 14.2661 7.49262 14.792C4.892 16.4636 2.94762 16.7879 2.4545 16.2957ZM16.2957 16.2957C15.8026 16.7879 13.8582 16.4636 11.2539 14.7957C11.8782 14.2698 12.4961 13.7036 13.0979 13.1017C13.6998 12.4998 14.2661 11.8829 14.792 11.2576C16.4636 13.8582 16.7879 15.8026 16.2957 16.2957ZM10.8751 9.37512C10.8751 9.67179 10.7871 9.9618 10.6223 10.2085C10.4575 10.4552 10.2232 10.6474 9.94915 10.7609C9.67506 10.8745 9.37346 10.9042 9.08249 10.8463C8.79152 10.7884 8.52424 10.6456 8.31446 10.4358C8.10468 10.226 7.96182 9.95873 7.90394 9.66776C7.84607 9.37679 7.87577 9.07519 7.9893 8.8011C8.10284 8.52701 8.29509 8.29274 8.54177 8.12792C8.78844 7.9631 9.07845 7.87512 9.37512 7.87512C9.77295 7.87512 10.1545 8.03316 10.4358 8.31446C10.7171 8.59577 10.8751 8.9773 10.8751 9.37512Z" fill="currentColor"/>
</svg>
