<svg width="13" height="9" viewBox="0 0 13 9" fill="none" xmlns="http://www.w3.org/2000/svg">
<path d="M10.4307 0.0737878C10.8566 0.172128 11.2436 0.395109 11.5422 0.714288C11.7064 0.887181 11.8494 1.07904 11.9682 1.28579C11.9737 1.30829 11.2012 1.82729 10.7327 2.11679C10.7157 2.12829 10.6482 2.05479 10.5717 1.94179C10.4863 1.79455 10.3648 1.67142 10.2188 1.58397C10.0727 1.49651 9.90684 1.44759 9.73671 1.44179C9.19821 1.40479 8.85121 1.68679 8.85371 2.15829C8.84906 2.27412 8.87547 2.3891 8.93021 2.49129C9.04871 2.73629 9.26871 2.88329 9.95971 3.18279C11.2317 3.73029 11.7777 4.09129 12.1147 4.60429C12.3051 4.92844 12.4224 5.2903 12.4583 5.66453C12.4943 6.03876 12.448 6.41632 12.3227 6.77079C12.1506 7.15963 11.8775 7.49527 11.5318 7.74279C11.186 7.99032 10.7803 8.1407 10.3567 8.17829C9.90652 8.22941 9.45174 8.22471 9.00271 8.16429C8.31495 8.05131 7.68138 7.72122 7.19471 7.22229C7.01091 7.01513 6.85524 6.78465 6.73171 6.53679C6.78391 6.49863 6.83852 6.46389 6.89521 6.43279C6.97421 6.38779 7.27321 6.21579 7.55521 6.05229L8.06721 5.75229L8.17421 5.90829C8.35472 6.16576 8.58406 6.38525 8.84921 6.55429C9.11723 6.7013 9.42081 6.77096 9.72611 6.75551C10.0314 6.74006 10.3264 6.6401 10.5782 6.46679C10.7081 6.34019 10.7893 6.17192 10.8076 5.99146C10.8259 5.811 10.7801 5.62987 10.6782 5.47979C10.5402 5.28229 10.2582 5.11629 9.45671 4.76879C8.82824 4.55687 8.2558 4.20561 7.78221 3.74129C7.55684 3.48415 7.3903 3.18093 7.29421 2.85279C7.22316 2.47889 7.21269 2.09601 7.26321 1.71879C7.35717 1.28464 7.58239 0.889908 7.90832 0.588123C8.23426 0.286338 8.64513 0.0921108 9.08521 0.031788C9.53328 -0.0217541 9.98685 -0.00759586 10.4307 0.0737878ZM6.25921 0.815288L6.26471 1.54229H3.94971V8.11629H2.31721V1.54379H0.00220883V0.829788C-0.00393523 0.585273 0.00274058 0.340604 0.0222088 0.0967876C0.0307088 0.0852876 1.43821 0.0797876 3.14471 0.0827876L6.25021 0.0912877L6.25921 0.815288Z" fill="currentColor"/>
</svg>
