<svg width="21" height="19" viewBox="0 0 21 19" fill="none" xmlns="http://www.w3.org/2000/svg">
<path d="M18.209 0.744134C18.4044 0.412135 18.72 0.168046 19.0905 0.0624516C19.461 -0.0431432 19.8579 -0.00214796 20.199 0.176942C20.5401 0.356031 20.7992 0.659484 20.9226 1.02442C21.046 1.38935 21.0243 1.78778 20.862 2.13713L20.795 2.26513L11.795 17.5651C11.6686 17.7798 11.4909 17.9596 11.2777 18.0884C11.0645 18.2171 10.8226 18.2908 10.5739 18.3027C10.3251 18.3146 10.0773 18.2644 9.85281 18.1566C9.62831 18.0488 9.43418 17.8867 9.28795 17.6851L9.20895 17.5651L0.208955 2.26513C0.0124574 1.93294 -0.0484293 1.53778 0.0389565 1.16185C0.126342 0.78591 0.355275 0.458124 0.678146 0.246654C1.00102 0.0351849 1.39298 -0.0436922 1.77251 0.0264263C2.15205 0.0965448 2.48995 0.310262 2.71595 0.623134L2.79495 0.743134L10.502 13.8471L18.209 0.744134ZM13.329 0.739134C13.5244 0.407135 13.84 0.163046 14.2105 0.0574514C14.581 -0.0481433 14.9779 -0.00714807 15.319 0.171941C15.6601 0.351031 15.9192 0.654484 16.0426 1.01941C16.166 1.38435 16.1443 1.78278 15.982 2.13213L15.915 2.26013L11.795 9.26413C11.6687 9.47884 11.491 9.65874 11.2779 9.78759C11.0648 9.91645 10.8229 9.99021 10.5742 10.0022C10.3254 10.0142 10.0776 9.9641 9.853 9.85637C9.62845 9.74863 9.43426 9.58669 9.28795 9.38513L9.20895 9.26513L5.09195 2.26413C4.89546 1.93194 4.83457 1.53678 4.92196 1.16085C5.00934 0.784911 5.23827 0.457124 5.56115 0.245655C5.88402 0.034185 6.27598 -0.0446922 6.65551 0.0254263C7.03505 0.0955448 7.37295 0.309262 7.59895 0.622134L7.67795 0.742134L10.502 5.54713L13.329 0.739134Z" fill="currentColor"/>
</svg>
