<svg width="24" height="24" viewBox="0 0 24 24" fill="none" xmlns="http://www.w3.org/2000/svg">
<path d="M18.01 0C16.5457 0.000795367 15.1417 0.583032 14.1066 1.61871C13.0715 2.65439 12.49 4.05873 12.49 5.523C12.49 9.365 9.365 12.49 5.518 12.49C4.0766 12.4974 2.66845 12.0572 1.488 11.23C2.59691 13.2084 4.24806 14.8286 6.247 15.9V18.41C6.247 21.45 8.675 23.97 11.71 24C14.78 24 17.29 21.54 17.29 18.48V15.9C20.93 13.94 23.45 10.1 23.52 5.692V5.527C23.52 2.477 21.04 0 18.01 0ZM5.518 0C4.05432 0.00211876 2.65127 0.584844 1.61676 1.62029C0.582247 2.65574 0.000793082 4.05932 0 5.523C0.000795083 6.98613 0.582441 8.38909 1.61712 9.42358C2.65181 10.4581 4.05487 11.0395 5.518 11.04C6.98033 11.0387 8.38232 10.4568 9.41588 9.42234C10.4494 8.38785 11.03 6.98533 11.03 5.523C11.03 2.477 8.562 0 5.518 0Z" fill="currentColor"/>
</svg>
