<svg width="137" height="21" viewBox="0 0 137 21" fill="none" xmlns="http://www.w3.org/2000/svg">
<path d="M0 0.780561H6.81299C8.20988 0.780561 9.4102 1.00323 10.414 1.44856C11.4261 1.8939 12.204 2.55299 12.7477 3.42585C13.2914 4.29871 13.5632 5.37197 13.5632 6.64562C13.5632 7.68771 13.3959 8.58283 13.0614 9.331C12.7351 10.0703 12.2709 10.6893 11.6687 11.188C11.0748 11.6779 10.3763 12.0698 9.57331 12.3637L8.38135 13.0317H2.4592L2.43411 9.90548H6.83808C7.49889 9.90548 8.04677 9.78078 8.48173 9.5314C8.91669 9.28201 9.24291 8.93465 9.46039 8.48931C9.68624 8.04398 9.79916 7.52739 9.79916 6.93955C9.79916 6.31608 9.69042 5.77722 9.47294 5.32298C9.25546 4.86874 8.92505 4.52138 8.48173 4.2809C8.0384 4.04041 7.48216 3.92017 6.81299 3.92017H3.76408V20.2328H0V0.780561ZM10.2132 20.2328L6.04762 11.5621L10.025 11.5354L14.2408 20.0458V20.2328H10.2132Z" fill="#52CBFF"/>
<path d="M16.4114 18.3758C16.4114 17.8057 16.5954 17.3292 16.9635 16.9462C17.3399 16.5632 17.8376 16.3717 18.4565 16.3717C19.0755 16.3717 19.569 16.5632 19.9371 16.9462C20.3135 17.3292 20.5017 17.8057 20.5017 18.3758C20.5017 18.9458 20.3135 19.4223 19.9371 19.8053C19.569 20.1883 19.0755 20.3798 18.4565 20.3798C17.8376 20.3798 17.3399 20.1883 16.9635 19.8053C16.5954 19.4223 16.4114 18.9458 16.4114 18.3758Z" fill="#52CBFF"/>
<path d="M38.3936 10.0658V17.7745C38.1092 18.1397 37.6701 18.5361 37.0762 18.9636C36.4823 19.3822 35.7169 19.7429 34.7801 20.0458C33.8433 20.3486 32.7099 20.5 31.3799 20.5C30.2005 20.5 29.1256 20.2951 28.1553 19.8854C27.185 19.4668 26.3486 18.8567 25.6459 18.0551C24.9517 17.2535 24.4163 16.2738 24.0399 15.1159C23.6635 13.9491 23.4753 12.6176 23.4753 11.1212V9.90548C23.4753 8.40915 23.6552 7.0776 24.0148 5.91082C24.3829 4.74404 24.9057 3.75985 25.5832 2.95825C26.2607 2.15665 27.0679 1.54654 28.0048 1.12792C28.9416 0.709308 29.983 0.5 31.129 0.5C32.7182 0.5 34.0231 0.776108 35.0436 1.32832C36.0641 1.87163 36.842 2.6287 37.3773 3.59953C37.921 4.56146 38.2556 5.66589 38.3811 6.91283H34.7299C34.6379 6.25373 34.4623 5.67925 34.2029 5.18938C33.9436 4.69951 33.5714 4.31652 33.0863 4.04041C32.6095 3.76431 31.9905 3.62625 31.2293 3.62625C30.602 3.62625 30.0415 3.76431 29.548 4.04041C29.0629 4.30762 28.653 4.70396 28.3184 5.22946C27.9839 5.75495 27.7287 6.40514 27.5531 7.18003C27.3774 7.95491 27.2896 8.85449 27.2896 9.87876V11.1212C27.2896 12.1366 27.3816 13.0362 27.5656 13.82C27.7496 14.5949 28.0215 15.2495 28.3812 15.7839C28.7492 16.3094 29.2009 16.7057 29.7362 16.9729C30.2716 17.2401 30.8947 17.3737 31.6057 17.3737C32.1996 17.3737 32.6931 17.3203 33.0863 17.2134C33.4878 17.1065 33.8098 16.9774 34.0524 16.826C34.3033 16.6657 34.4957 16.5143 34.6295 16.3717V12.9249H31.1917V10.0658H38.3936Z" fill="#52CBFF"/>
<path d="M56.4361 10.0524V10.9743C56.4361 12.4528 56.2479 13.7799 55.8715 14.9556C55.4951 16.1313 54.9639 17.1333 54.278 17.9616C53.5921 18.781 52.7724 19.4089 51.8188 19.8454C50.8736 20.2818 49.8239 20.5 48.6696 20.5C47.5236 20.5 46.4739 20.2818 45.5203 19.8454C44.5751 19.4089 43.7553 18.781 43.0611 17.9616C42.3668 17.1333 41.8273 16.1313 41.4425 14.9556C41.0661 13.7799 40.8779 12.4528 40.8779 10.9743V10.0524C40.8779 8.56502 41.0661 7.23792 41.4425 6.07114C41.8189 4.89546 42.3501 3.89345 43.036 3.06513C43.7303 2.23681 44.55 1.60443 45.4952 1.168C46.4488 0.731574 47.4985 0.51336 48.6445 0.51336C49.7988 0.51336 50.8486 0.731574 51.7938 1.168C52.7473 1.60443 53.5671 2.23681 54.253 3.06513C54.9472 3.89345 55.4826 4.89546 55.859 6.07114C56.2437 7.23792 56.4361 8.56502 56.4361 10.0524ZM52.6344 10.9743V10.0257C52.6344 8.99254 52.5466 8.08406 52.3709 7.30027C52.1953 6.51648 51.936 5.85738 51.593 5.32298C51.2501 4.78858 50.8318 4.38778 50.3383 4.12057C49.8448 3.84447 49.2802 3.70641 48.6445 3.70641C48.0088 3.70641 47.4441 3.84447 46.9506 4.12057C46.4655 4.38778 46.0514 4.78858 45.7085 5.32298C45.3739 5.85738 45.1188 6.51648 44.9431 7.30027C44.7675 8.08406 44.6796 8.99254 44.6796 10.0257V10.9743C44.6796 11.9986 44.7675 12.907 44.9431 13.6997C45.1188 14.4835 45.3781 15.1471 45.721 15.6904C46.064 16.2248 46.4822 16.63 46.9757 16.9061C47.4692 17.1823 48.0339 17.3203 48.6696 17.3203C49.3053 17.3203 49.8699 17.1823 50.3634 16.9061C50.8569 16.63 51.271 16.2248 51.6055 15.6904C51.9401 15.1471 52.1953 14.4835 52.3709 13.6997C52.5466 12.907 52.6344 11.9986 52.6344 10.9743Z" fill="#52CBFF"/>
<path d="M69.234 0.780561H72.9855V13.6329C72.9855 15.1293 72.6844 16.3896 72.0822 17.4138C71.4883 18.4381 70.6643 19.2085 69.6104 19.7251C68.5648 20.2417 67.3603 20.5 65.9969 20.5C64.6335 20.5 63.4206 20.2417 62.3583 19.7251C61.3043 19.2085 60.4762 18.4381 59.874 17.4138C59.2801 16.3896 58.9831 15.1293 58.9831 13.6329V0.780561H62.7472V13.6329C62.7472 14.5058 62.8769 15.2183 63.1362 15.7705C63.3955 16.3228 63.7677 16.728 64.2529 16.9863C64.7464 17.2446 65.3277 17.3737 65.9969 17.3737C66.6828 17.3737 67.2641 17.2446 67.7409 16.9863C68.2261 16.728 68.5941 16.3228 68.845 15.7705C69.1043 15.2183 69.234 14.5058 69.234 13.6329V0.780561Z" fill="#52CBFF"/>
<path d="M87.8286 17.1065V20.2328H78.6317V17.1065H87.8286ZM79.8487 0.780561V20.2328H76.0846V0.780561H79.8487Z" fill="#52CBFF"/>
<path d="M97.6654 4.10721L92.6968 20.2328H88.6943L95.4822 0.780561H98.0292L97.6654 4.10721ZM101.793 20.2328L96.8122 4.10721L96.4107 0.780561H98.9828L105.808 20.2328H101.793ZM101.567 12.9917V16.1313H91.9189V12.9917H101.567Z" fill="#52CBFF"/>
<path d="M107.502 0.780561H114.315C115.712 0.780561 116.912 1.00323 117.916 1.44856C118.928 1.8939 119.706 2.55299 120.25 3.42585C120.794 4.29871 121.065 5.37197 121.065 6.64562C121.065 7.68771 120.898 8.58283 120.564 9.331C120.237 10.0703 119.773 10.6893 119.171 11.188C118.577 11.6779 117.878 12.0698 117.075 12.3637L115.884 13.0317H109.961L109.936 9.90548H114.34C115.001 9.90548 115.549 9.78078 115.984 9.5314C116.419 9.28201 116.745 8.93465 116.963 8.48931C117.188 8.04398 117.301 7.52739 117.301 6.93955C117.301 6.31608 117.193 5.77722 116.975 5.32298C116.758 4.86874 116.427 4.52138 115.984 4.2809C115.541 4.04041 114.984 3.92017 114.315 3.92017H111.266V20.2328H107.502V0.780561ZM117.715 20.2328L113.55 11.5621L117.527 11.5354L121.743 20.0458V20.2328H117.715Z" fill="#52CBFF"/>
<path d="M131.379 0.780561V20.2328H127.627V0.780561H131.379ZM137 0.780561V3.92017H122.094V0.780561H137Z" fill="#52CBFF"/>
</svg>
